<?xml version="1.0" standalone="no"?>
<!DOCTYPE svg PUBLIC "-//W3C//DTD SVG 1.1//EN" "http://www.w3.org/Graphics/SVG/1.1/DTD/svg11.dtd" >
<!--
2013-9-30: Created.
-->
<svg>
<metadata>
Created by iconfont
</metadata>
<defs>

<font id="iconfont" horiz-adv-x="1024" >
  <font-face
    font-family="iconfont"
    font-weight="500"
    font-stretch="normal"
    units-per-em="1024"
    ascent="896"
    descent="-128"
  />
    <missing-glyph />
    
    <glyph glyph-name="github" unicode="&#59025;" d="M512.465 797.256c-236.05 2.401-429.41-187.034-431.998-423.242 0.894-183.912 120.176-346.283 295.332-402.018 21.6-3.93 29.451 9.04 29.451 20.436v71.916c-120.17-25.545-145.7 56.59-145.7 56.59a112.364 112.364 0 0 1-47.914 62.089c-39.272 25.937 3.141 25.545 3.141 25.545a90.702 90.702 0 0 0 65.978-43.624c25.358-43.993 81.26-59.548 125.678-34.976a91.569 91.569 0 0 0 27.487 56.59c-95.825 10.615-196.36 46.768-196.36 209.067a163.13 163.13 0 0 0 43.591 114.358 148.652 148.652 0 0 0 4.32 111.609c15.896 35.223 36.525 11.397 117.815-43.229a419.24 419.24 0 0 0 216.002 0c82.471 54.626 117.82 43.229 117.82 43.229a148.657 148.657 0 0 0 4.32-111.61 163.145 163.145 0 0 0 45.945-113.57c0-162.695-101.321-198.458-196.36-209.067a98.273 98.273 0 0 0 29.452-78.594v-115.933c0-13.752 7.856-24.756 29.457-20.43 174.63 56.071 293.466 218.106 294.545 401.622C941.878 610.222 748.52 799.657 512.465 797.256"  horiz-adv-x="1024" />

    
    <glyph glyph-name="git" unicode="&#59176;" d="M256 597.333333a85.333333 85.333333 0 1 1 0 170.666667 85.333333 85.333333 0 0 1 0-170.666667z m0-85.333333a170.666667 170.666667 0 1 0 0 341.333333 170.666667 170.666667 0 0 0 0-341.333333zM298.666667 406.826667V170.66666699999996a85.333333 85.333333 0 0 1 85.333333-85.333334h256v-85.333333H384a170.666667 170.666667 0 0 0-170.666667 170.666667V597.333333h85.333334v-42.666666a85.333333 85.333333 0 0 1 85.333333-85.333334h256v-85.333333H384a169.898667 169.898667 0 0 0-85.333333 22.826667zM768-42.66666699999996a85.333333 85.333333 0 1 1 0 170.666667 85.333333 85.333333 0 0 1 0-170.666667z m0-85.333333a170.666667 170.666667 0 1 0 0 341.333333 170.666667 170.666667 0 0 0 0-341.333333zM768 341.33333300000004a85.333333 85.333333 0 1 1 0 170.666667 85.333333 85.333333 0 0 1 0-170.666667z m0-85.333333a170.666667 170.666667 0 1 0 0 341.333333 170.666667 170.666667 0 0 0 0-341.333333z"  horiz-adv-x="1024" />

    
    <glyph glyph-name="icon-config" unicode="&#58890;" d="M993.760151 191.613854l-41.03394-12.784554c1.179682-8.863611 2.455338-17.504282 2.455338-26.654816 0-9.05456-1.434613-17.854188-2.805244-26.52585l41.383846-12.880529c9.692388-2.806244 17.854188-9.373474 22.572915-18.237084 4.686737-8.863611 5.642479-19.257809 2.422348-28.822232-6.663204-19.703689-28.5663-30.351819-49.066775-24.03952l-41.862717 12.976502a207.334117 207.334117 0 0 0-32.169329-43.265338l25.538116-33.731909a36.378195 36.378195 0 0 0-8.60768-52.159941 39.88525 39.88525 0 0 0-54.42533 8.225783l-25.665083 33.890865a217.951255 217.951255 0 0 0-52.733786-17.089393v-41.128915c0-20.595449-17.472291-37.39792-38.929508-37.39792-21.552191 0-38.99249 16.706497-38.99249 37.39892v41.128914a217.759307 217.759307 0 0 0-52.765778 17.088394l-25.602099-33.890865a40.172172 40.172172 0 0 0-54.455323-8.225783 36.155255 36.155255 0 0 0-8.576688 52.159941l25.793048 34.050823a201.084801 201.084801 0 0 0-33.285029 42.691493l-40.905975-12.785554c-20.596449-6.440264-42.499545 4.335831-49.099766 24.039521a36.920049 36.920049 0 0 0 24.964272 47.059316l41.064931 12.720571c-1.147691 8.83162-2.519321 17.600256-2.519321 26.686807 0 9.181525 1.499596 17.854188 2.839235 26.652816l-41.416837 12.817546c-20.564457 6.440264-31.659467 27.482593-24.963271 47.123298 6.598222 19.607715 28.502318 30.287836 49.098766 24.00753l41.829726-13.040485a211.000129 211.000129 0 0 0 32.170329 43.360313l-25.506126 33.636933a36.442178 36.442178 0 0 0 8.576689 52.191933 39.949232 39.949232 0 0 0 54.455322-8.289766l25.633091-33.890865a214.412209 214.412209 0 0 0 52.734787 17.120386v41.128914c0 20.62844 17.408308 37.39892 38.99249 37.39892 21.489208 0 38.960499-16.642514 38.960499-37.39892v-41.064932a216.675599 216.675599 0 0 0 52.702795-17.152377l25.665082 33.922857a40.109189 40.109189 0 0 0 54.424331 8.289766c17.344325-12.179717 21.265268-35.485436 8.640671-52.223924l-25.825039-34.018831c12.720571-12.91252 24.358435-26.97273 33.349011-42.595519l40.873984 12.656588c20.532466 6.313298 42.403571-4.398814 49.066775-24.070512 6.759178-19.608715-4.52678-40.651043-24.995263-47.059316zM740.928297 282.86226c-75.306702 0-136.426229-58.600205-136.426229-130.78275 0-72.246527 61.119526-130.719767 136.426229-130.719767 75.211728 0 136.363246 58.47324 136.363246 130.719767 0 72.182545-61.056543 130.78275-136.363246 130.78275zM441.708946 0.571346H99.640144a49.736594 49.736594 0 0 0-49.768586 49.769586V796.429837c0 27.451601 22.285993 49.769586 49.768586 49.769586h447.698331v-223.849666a99.50618 99.50618 0 0 1 99.50618-99.50618h198.948377v-36.441178a322.016207 322.016207 0 0 0 49.768586-32.011372V547.713874l-8.799628 8.767637 1.529588 8.799628L581.324315 895.904026H99.671136A99.50618 99.50618 0 0 1 0.164956 796.397846V50.277949a99.50618 99.50618 0 0 1 99.50618-99.50618h390.34079a322.876975 322.876975 0 0 0-48.301981 49.800577zM597.107061 804.87856l217.758307-232.265397H646.843655a49.736594 49.736594 0 0 0-49.769585 49.736594V804.87856h0.031991zM174.276027 473.106983H422.99399v49.736594H174.277027v-49.736594zM422.99399 672.119343H174.277027v-49.769586H422.99399V672.120343zM174.277027 152.142493H422.99399v49.737594H174.277027v-49.736594z m339.838403 198.980368h-339.838403v-49.736594h339.838403v49.736594z"  horiz-adv-x="1024" />

    
    <glyph glyph-name="customers" unicode="&#58889;" d="M734.994 6.626c-18.952 2.988-19.384 54.654-19.384 54.654s55.688 54.656 67.824 128.152c32.652 0 52.814 78.138 20.164 105.628 1.362 28.94 41.968 227.176-163.598 227.176-205.564 0-164.958-198.236-163.598-227.176-32.654-27.49-12.488-105.628 20.162-105.628 12.134-73.496 67.826-128.152 67.826-128.152s-0.432-51.666-19.384-54.654C483.958-3.006 256-102.69 256-212l384 0 384 0C1024-102.69 796.042-3.006 734.994 6.626zM344.054-10.81c44.094 27.15 97.626 52.308 141.538 67.424-15.752 22.432-33.294 52.936-44.33 89.062-15.406 12.566-27.944 30.532-35.998 52.602-8.066 22.104-11.122 46.852-8.608 69.684 1.804 16.392 6.478 31.666 13.65 45.088-4.35 46.586-7.414 138.034 52.448 204.732 23.214 25.866 52.556 44.46 87.7 55.686C544.18 638.228 511.294 714.238 384 714.238c-205.564 0-164.958-198.236-163.598-227.176-32.654-27.49-12.488-105.628 20.162-105.628 12.134-73.496 67.826-128.152 67.826-128.152s-0.432-51.666-19.384-54.654C227.958 188.994 0 89.31 0-20l329.596 0C334.306-16.926 339.102-13.86 344.054-10.81z"  horiz-adv-x="1024" />

    
    <glyph glyph-name="download" unicode="&#59036;" d="M640 725.34016l170.65984 0q53.00224 0 90.50112-37.49888t37.49888-90.50112l0-597.34016q0-53.00224-37.49888-90.50112t-90.50112-37.49888l-597.34016 0q-53.00224 0-90.50112 37.49888t-37.49888 90.50112l0 597.34016q0 53.00224 37.49888 90.50112t90.50112 37.49888l170.65984 0 0-85.34016-170.65984 0q-17.67424 0-30.16704-12.4928t-12.4928-30.16704l0-597.34016q0-17.67424 12.4928-30.16704t30.16704-12.4928l597.34016 0q17.67424 0 30.16704 12.4928t12.4928 30.16704l0 597.34016q0 17.67424-12.4928 30.16704t-30.16704 12.4928l-170.65984 0 0 85.34016zM512 896q17.67424 0 30.16704-12.4928t12.4928-30.16704l0-537.00608 97.66912 97.9968q12.32896 12.32896 30.33088 12.32896 18.3296 0 30.49472-12.16512t12.16512-30.49472q0-18.00192-12.32896-30.33088l-170.65984-170.65984q-12.32896-12.32896-30.33088-12.32896t-30.33088 12.32896l-170.65984 170.65984q-12.32896 13.0048-12.32896 30.33088 0 17.67424 12.4928 30.16704t30.16704 12.4928q18.00192 0 30.33088-12.32896l97.66912-97.9968 0 537.00608q0 17.67424 12.4928 30.16704t30.16704 12.4928z"  horiz-adv-x="1024" />

    
    <glyph glyph-name="kaipiaoshezhi" unicode="&#58902;" d="M611.04 64 416.64 64c-17.664 0-32 14.304-32 32s14.336 32 32 32l194.4 0c17.696 0 32-14.304 32-32S628.704 64 611.04 64zM737.984 448 416.64 448c-17.664 0-32 14.336-32 32s14.336 32 32 32l321.344 0c17.696 0 32-14.336 32-32S755.68 448 737.984 448zM737.984 640 416.64 640c-17.664 0-32 14.336-32 32s14.336 32 32 32l321.344 0c17.696 0 32-14.336 32-32S755.68 640 737.984 640zM737.984 256 416.64 256c-17.664 0-32 14.304-32 32s14.336 32 32 32l321.344 0c17.696 0 32-14.304 32-32S755.68 256 737.984 256zM925.6 68.992c-2.816 10.656-7.104 20.704-12.448 30.08l23.68 35.712-33.792 33.792-35.712-23.68c-9.376 5.344-19.392 9.632-30.08 12.448l-8.544 42.048-47.776 0-8.544-42.048c-10.688-2.816-20.704-7.104-30.08-12.448l-35.712 23.68-33.792-33.792 23.68-35.712c-5.408-9.376-9.632-19.424-12.448-30.08l-42.048-8.544 0-47.776 42.048-8.544c2.816-10.688 7.04-20.768 12.448-30.08l-23.68-35.712 33.792-33.792 35.712 23.68c9.376-5.408 19.392-9.632 30.08-12.448l8.544-42.048 47.776 0 8.544 42.048c10.688 2.816 20.704 7.04 30.08 12.448l35.712-23.68 33.792 33.792-23.68 35.712c5.408 9.312 9.632 19.392 12.448 30.08l42.048 8.544L967.648 60.48 925.6 68.992 925.6 68.992zM861.376 36.608c0-31.264-25.312-56.576-56.576-56.576-31.232 0-56.544 25.312-56.544 56.576 0 31.232 25.312 56.544 56.544 56.544C836.064 93.12 861.376 67.808 861.376 36.608L861.376 36.608zM861.376 36.608M640.928-128 160-128c-17.664 0-32 14.304-32 32L128 864c0 17.664 14.336 32 32 32l489.888 0c6.08 0 12.064-1.76 17.216-5.024l216.128-137.984c9.216-5.888 14.784-16.032 14.784-26.976L898.016 224c0-17.696-14.304-32-32-32s-32 14.304-32 32L834.016 708.448 640.544 832 192 832l0-896 448.928 0c17.696 0 32-14.304 32-32S658.624-128 640.928-128zM289.312 672m-30.656 0a0.958 0.958 0 1 0 61.312 0 0.958 0.958 0 1 0-61.312 0ZM289.312 480m-30.656 0a0.958 0.958 0 1 0 61.312 0 0.958 0.958 0 1 0-61.312 0ZM289.312 288m-30.656 0a0.958 0.958 0 1 0 61.312 0 0.958 0.958 0 1 0-61.312 0ZM289.312 96m-30.656 0a0.958 0.958 0 1 0 61.312 0 0.958 0.958 0 1 0-61.312 0Z"  horiz-adv-x="1024" />

    
    <glyph glyph-name="customer" unicode="&#58933;" d="M582.4 337.046187c-77.63968 66.39616-95.70304 55.268693-95.70304 55.268693-32.416427-18.06336-69.143893-29.187413-108.735147-29.187413-42.943147 0-82.664107 12.680533-116.872533 33.49504-139.008-65.314133-242.479787-243.43552-257.672533-459.721387l749.33248-2.874027c-11.369813 169.157973-92.716373 336.745813-170.349227 403.019094z m-204.322133-351.453867l-55.627094 57.780907 50.363734 264.485546-28.23168 39.35232c7.181653 9.925973 59.09504 10.88512 66.874026 0l-28.23168-39.35232 50.363734-264.485546-55.51104-57.780907zM261.085867 411.098453c34.208427-20.81792 73.929387-33.491627 116.872533-33.491626 39.59808 0 76.4416 11.12064 108.735147 29.067946 70.099627 38.754987 118.19008 112.919893 118.19008 199.051947 0 126.081707-101.56032 228.242773-226.92864 228.242773s-226.92864-102.161067-226.92864-228.242773c0.003413-82.78016 44.386987-154.671787 110.05952-194.628267z m644.3008-204.079786c-52.514133 44.86144-64.720213 37.44768-64.720214 37.44768-22.00576-12.20608-46.892373-19.739307-73.68704-19.739307-29.074773 0-55.985493 8.605013-79.192746 22.725973-94.139733-44.260693-164.246187-164.9664-174.53056-311.38816l507.33056-1.911466c-7.41376 114.36032-62.5664 227.887787-115.2 272.86528z m-138.407254-238.05952l-37.679786 39.120213 34.085546 179.080533-19.131733 26.671787c4.908373 6.700373 39.953067 7.420587 45.339307 0l-19.019094-26.671787 34.085547-179.080533-37.679787-39.120213z m-79.07328 288.180906c23.087787-14.114133 49.998507-22.725973 79.192747-22.725973 26.794667 0 51.68128 7.540053 73.693867 19.73248 47.486293 26.207573 80.018773 76.445013 80.018773 134.81984 0 85.41184-68.778667 154.555733-153.71264 154.555733-84.9408 0-153.719467-69.143893-153.719467-154.555733 0-56.098133 29.907627-104.792747 74.52672-131.826347z"  horiz-adv-x="1024" />

    
    <glyph glyph-name="BoardList" unicode="&#59439;" d="M819.197742 748.527654h-136.497208L648.48592 816.954624a27.965039 27.965039 0 0 1-25.009587 15.454601h-223.684191c-10.582282 0-20.274992-5.978639-25.009587-15.454601L340.565683 748.527654H204.068475C188.640967 748.527654 176.107951 735.994638 176.107951 720.56713v-754.931887c0-15.427508 12.533016-27.962782 27.960524-27.962782h615.129267c15.429766 0 27.962782 12.535274 27.962782 27.962782V720.56713c0 15.427508-12.533016 27.960524-27.962782 27.960524zM417.077815 776.488177h189.112845l55.925563-111.842095H361.154509l55.923306 111.842095z m374.161661-782.894668h-559.210477v699.013097h80.57616l-21.706433-43.415126a27.89279 27.89279 0 0 1 1.22824-27.197389 27.95375 27.95375 0 0 1 23.783604-13.269057h391.720528c15.454602 0 27.960524 12.535274 27.960523 27.960524 0 5.843171-1.776884 11.264135-4.847484 15.741342l-20.080822 40.179706h80.576161v-699.013097zM707.357904 524.843463H455.710932c-15.42525 0-27.960524-12.533016-27.960524-27.960524s12.535274-27.960524 27.960524-27.960524h251.646972c15.427508 0 27.960524 12.533016 27.960524 27.960524s-12.533016 27.960524-27.960524 27.960524zM707.357904 385.040843H455.710932c-15.42525 0-27.960524-12.533016-27.960524-27.960524s12.535274-27.960524 27.960524-27.960524h251.646972c15.427508 0 27.960524 12.533016 27.960524 27.960524s-12.533016 27.960524-27.960524 27.960524zM707.357904 245.238224H455.710932c-15.42525 0-27.960524-12.530758-27.960524-27.958266 0-15.429766 12.535274-27.960524 27.960524-27.960524h251.646972c15.427508 0 27.960524 12.530758 27.960524 27.960524 0 15.427508-12.533016 27.958266-27.960524 27.958266zM707.357904 105.437862H455.710932c-15.42525 0-27.960524-12.535274-27.960524-27.962782 0-15.42525 12.535274-27.960524 27.960524-27.960523h251.646972c15.427508 0 27.960524 12.535274 27.960524 27.960523 0 15.427508-12.533016 27.962782-27.960524 27.962782zM343.871094 524.843463H315.91057c-15.427508 0-27.960524-12.533016-27.960524-27.960524s12.533016-27.960524 27.960524-27.960524h27.960524c15.427508 0 27.960524 12.533016 27.960524 27.960524s-12.533016 27.960524-27.960524 27.960524zM343.871094 385.040843H315.91057c-15.427508 0-27.960524-12.533016-27.960524-27.960524s12.533016-27.960524 27.960524-27.960524h27.960524c15.427508 0 27.960524 12.533016 27.960524 27.960524s-12.533016 27.960524-27.960524 27.960524zM343.871094 245.238224H315.91057c-15.427508 0-27.960524-12.530758-27.960524-27.958266 0-15.429766 12.533016-27.960524 27.960524-27.960524h27.960524c15.427508 0 27.960524 12.530758 27.960524 27.960524 0 15.427508-12.533016 27.958266-27.960524 27.958266zM343.871094 105.437862H315.91057c-15.427508 0-27.960524-12.535274-27.960524-27.962782 0-15.42525 12.533016-27.960524 27.960524-27.960523h27.960524c15.427508 0 27.960524 12.535274 27.960524 27.960523 0 15.427508-12.533016 27.962782-27.960524 27.962782z"  horiz-adv-x="1024" />

    
    <glyph glyph-name="jurassic_version" unicode="&#59030;" d="M885.3 628.1L780.1 733.4l-98.3 98.3c-0.2 0.2-0.4 0.3-0.7 0.3H150c-11 0-20-9-20-20v-856c0-11 9-20 20-20h724c11 0 20 9 20 20V619c0 0.3-0.1 0.5-0.3 0.7l-8.4 8.4zM671.1 755.5c0 0.9 1.1 1.3 1.7 0.7l66.4-66.4 79-79.1c0.6-0.6 0.2-1.7-0.7-1.7H672.1c-0.5 0-1 0.4-1 1V755.5zM189.7-3.2999999999999545V771.3c0 0.5 0.4 1 1 1h419.7c0.5 0 1-0.4 1-1v-219c0-0.5 0.4-1 1-1 0.5 0 1-0.4 1-1 0-0.5 0.4-1 1-1h218.9c0.5 0 1-0.4 1-1v-551.5c0-0.5-0.4-1-1-1H190.7c-0.6-0.1-1 0.4-1 0.9zM535.2 236.5l123 276.1c0.3 0.7-0.2 1.4-0.9 1.4h-44.4c-0.4 0-0.8-0.2-0.9-0.6L519.7 297c-3.9-8.6-6.5-17.1-7.6-25.3H511c-1.5 9.5-3.7 17.8-6.8 25l-90.6 216.8c-0.2 0.4-0.5 0.6-0.9 0.6h-46.2c-0.7 0-1.2-0.7-0.9-1.4l120.7-276.1c0.2-0.4 0.5-0.6 0.9-0.6h47c0.5-0.1 0.9 0.2 1 0.5zM345.7 104.10000000000002h332.5c0.5 0 1 0.4 1 1v57.7c0 0.5-0.4 1-1 1H345.7c-0.5 0-1-0.4-1-1v-57.7c0-0.5 0.5-1 1-1z"  horiz-adv-x="1024" />

    
    <glyph glyph-name="Customermanagement" unicode="&#59211;" d="M617.216 725.333333c114.24 0 206.869333-92.608 206.869333-206.869333 0-72.533333-37.333333-136.32-93.802666-173.269333l168.746666-196.885334A64 64 0 0 0 850.432 42.666667l-101.888-0.021334c11.221333 19.413333 14.293333 42.496 8.746667 64L850.432 106.666667 634.24 358.890667l60.992 39.872a142.869333 142.869333 0 0 1-75.584 262.549333 251.264 251.264 0 0 1-55.424 57.173333A206.976 206.976 0 0 0 617.216 725.333333z m-61.162667-412.757333l140.8-164.266667A64 64 0 0 0 648.213333 42.666667H181.824a64 64 0 0 0-48.597333 105.642666l140.8 164.266667c18.026667-12.373333 37.76-22.442667 58.773333-29.781333L181.824 106.666667h466.410667l-150.997334 176.128c21.034667 7.338667 40.768 17.386667 58.816 29.781333zM415.04 725.333333c114.24 0 206.869333-92.608 206.869333-206.869333 0-114.24-92.629333-206.869333-206.869333-206.869333-114.261333 0-206.869333 92.629333-206.869333 206.869333C208.170667 632.725333 300.778667 725.333333 415.04 725.333333z m0-64a142.869333 142.869333 0 1 1 0-285.738666 142.869333 142.869333 0 0 1 0 285.738666z"  horiz-adv-x="1024" />

    
    <glyph glyph-name="banben1" unicode="&#59159;" d="M847.612 828C908.578 828 958 778.561 958 717.575v-667.15C958-10.561 908.578-60 847.612-60H438.258c-46.326 0-85.987 28.547-102.363 69.015h-44.613c-48.672 0-89.654 32.66-103.384 77.464a29.827 29.827 0 0 0-9.51-1.546c-60.356 0-109.398 48.455-110.373 108.598L68 195.358V568.04c0 60.986 49.422 110.425 110.388 110.425 2.883 0 5.672-0.408 8.31-1.17 12.234 46.399 53.394 80.857 102.788 81.674l1.796 0.014h44.613C352.271 799.455 391.932 828 438.258 828z m0-59.813H438.258c-27.942 0-50.594-22.66-50.594-50.612v-667.15c0-27.952 22.652-50.612 50.594-50.612h409.354c27.943 0 50.595 22.66 50.595 50.612v667.15c0 27.952-22.652 50.612-50.595 50.612zM327.87 699.17h-36.588c-26.342 0-48.063-22.038-48.495-49.77l-0.007-0.841v-529.12c0-27.844 21.458-50.16 47.705-50.604l0.797-0.007 36.588 0.001V699.171z m-148.777-80.51l-0.705-0.008c-27.663 0-50.141-22.209-50.588-49.775l-0.007-0.837v-372.683c0-27.673 22.201-50.158 49.758-50.605l0.837-0.007c1.564 0 3.1-0.12 4.6-0.352v474.61a30.06 30.06 0 0 0-3.895-0.343z m607.45-60.123c15.1-6.05 22.552-23.033 16.903-38.195l-0.266-0.688-135.284-337.861c-9.924-24.784-44.738-25.05-55.185-0.773l-0.31 0.744-135.696 337.861c-6.156 15.326 1.274 32.742 16.595 38.9 15.093 6.066 32.212-1.056 38.604-15.92l0.283-0.681L640.1 273.242l107.574 268.654c6.14 15.332 23.542 22.783 38.87 16.642z"  horiz-adv-x="1024" />

    
    <glyph glyph-name="shengji" unicode="&#58916;" d="M698.368 377.856l-160.256 160.256c-6.656 6.656-15.36 10.24-24.576 10.24-9.216 0-18.432-3.584-24.576-10.24l-163.84-163.84c-13.824-13.824-13.824-35.84 0-49.664 6.656-6.656 15.872-10.24 24.576-10.24 9.216 0 17.92 3.584 24.576 10.24l101.888 102.4v-428.544c0-19.456 15.872-34.816 34.816-34.816s34.816 15.872 34.816 34.816V431.616l102.912-102.912c13.824-13.824 35.84-13.824 49.664 0s13.824 35.84 0 49.152zM793.6 92.67200000000003h-121.344c-19.456 0-34.816 15.872-34.816 34.816s15.872 34.816 34.816 34.816H793.6c86.528 0 157.184 70.656 157.184 157.184 0 41.984-16.384 81.408-45.568 110.592-29.696 29.696-68.608 46.08-110.592 46.592-18.432 0-33.28 14.336-34.816 32.256-4.608 61.952-32.256 119.296-77.824 161.792-45.568 42.496-105.472 66.048-168.448 66.048-58.368 0-114.688-20.48-159.232-58.368-44.032-36.864-73.728-88.576-83.456-144.896-3.072-15.872-16.384-27.648-32.768-28.672-91.136-5.12-162.304-80.384-162.304-171.52 0-44.544 16.896-86.528 47.616-118.784 30.208-31.744 71.168-50.688 114.688-53.248h109.056c19.456 0 34.816-15.872 34.816-34.816s-15.872-34.816-34.816-34.816H235.52c-61.952 3.072-119.808 29.696-162.816 74.752-43.008 45.056-66.56 104.448-66.56 166.912 0 119.296 86.528 219.648 201.728 238.592C224.256 634.88 260.096 691.2 309.248 732.672c56.832 48.128 129.536 74.752 204.288 74.752 80.384 0 157.184-30.208 216.064-84.992 51.2-47.616 84.48-110.08 96.256-177.664 48.64-6.656 93.184-29.184 128.512-65.024 42.496-43.008 66.048-99.84 66.048-160.256 0-60.928-23.552-117.76-66.56-160.768s-99.328-66.048-160.256-66.048z"  horiz-adv-x="1024" />

    
    <glyph glyph-name="xukezheng" unicode="&#59814;" d="M128 576h704v-64H128zM192 704m32 0l64 0q32 0 32-32l0 0q0-32-32-32l-64 0q-32 0-32 32l0 0q0 32 32 32ZM192 384m32 0l256 0q32 0 32-32l0 0q0-32-32-32l-256 0q-32 0-32 32l0 0q0 32 32 32ZM192 256m32 0l192 0q32 0 32-32l0 0q0-32-32-32l-192 0q-32 0-32 32l0 0q0 32 32 32ZM384 704m32 0l64 0q32 0 32-32l0 0q0-32-32-32l-64 0q-32 0-32 32l0 0q0 32 32 32ZM768 384a128 128 0 1 0-128-128 128 128 0 0 0 128 128m0 64a192 192 0 1 1 192-192 192 192 0 0 1-192 192zM768 256m-64 0a64 64 0 1 1 128 0 64 64 0 1 1-128 0ZM512 64H128V768h704v-256h64V768a64 64 0 0 1-64 64H128a64 64 0 0 1-64-64v-704a64 64 0 0 1 64-64h384zM448 64m32 0l64 0q32 0 32-32l0 0q0-32-32-32l-64 0q-32 0-32 32l0 0q0 32 32 32ZM832 576m32 0l0 0q32 0 32-32l0-64q0-32-32-32l0 0q-32 0-32 32l0 64q0 32 32 32ZM832 128v-128h-128v128h-64v-160a32 32 0 0 1 32-32h192a32 32 0 0 1 32 32V128z"  horiz-adv-x="1024" />

    
    <glyph glyph-name="zhuji" unicode="&#59007;" d="M886.053 512.592H129.902c-51.967 0-67.751-26.649-67.751-61.328v-131.943c0-50.951 26.569-61.436 67.751-61.436H886.05c42.032 0 67.751 20.234 67.751 61.328V451.156c0.001 43.703-19.074 61.436-67.749 61.436z m8.586-195.724H123.47V452.596h771.17l-0.001-135.728zM724.29 361.322h90.123c6.202 0 11.291 4.773 11.291 10.628v21.255c0 5.858-5.036 10.628-11.291 10.628H724.29c-6.202 0-11.241-4.718-11.241-10.628v-21.255c0-5.858 5.036-10.628 11.241-10.628zM188.128 403.341h42.51v-42.509h-42.51v42.509zM274.159 404.328h42.51v-42.509h-42.51v42.509zM362.337 403.341h42.51v-42.509h-42.51v42.509zM447.287 402.28h42.51v-42.511h-42.51V402.28zM886.053 192.699H129.902c-51.967 0-67.751-26.649-67.751-61.328v-131.943c0-50.95 26.569-61.435 67.751-61.435H886.05c42.032 0 67.751 20.236 67.751 61.328V131.264c0.001 43.698-19.074 61.435-67.749 61.435z m8.586-195.722H123.47V132.705h771.17l-0.001-135.728zM724.29 41.435h90.123c6.202 0 11.291 4.771 11.291 10.627V73.32c0 5.858-5.036 10.627-11.291 10.627H724.29c-6.202 0-11.241-4.718-11.241-10.627v-21.258c0-5.858 5.036-10.627 11.241-10.627zM188.128 83.453h42.51v-42.51h-42.51v42.51zM274.159 84.439h42.51v-42.509h-42.51v42.509zM362.337 83.453h42.51v-42.51h-42.51v42.51zM447.287 82.389h42.51v-42.51h-42.51v42.51zM886.053 831.415H129.902c-51.967 0-67.751-26.649-67.751-61.328v-131.943c0-50.951 26.569-61.436 67.751-61.436H886.05c42.032 0 67.751 20.236 67.751 61.328V769.979c0.001 43.706-19.074 61.436-67.749 61.436z m8.586-195.722H123.47V771.421h771.17l-0.001-135.728zM724.29 681.215h90.123c6.202 0 11.291 4.771 11.291 10.627V713.1c0 5.858-5.036 10.627-11.291 10.627H724.29c-6.202 0-11.241-4.718-11.241-10.627v-21.258c0-5.858 5.036-10.627 11.241-10.627zM188.128 723.229h42.51v-42.509h-42.51v42.509zM274.159 724.218h42.51v-42.51h-42.51v42.51zM362.337 723.229h42.51v-42.509h-42.51v42.509zM447.287 722.168h42.51v-42.51h-42.51v42.51z"  horiz-adv-x="1024" />

    
    <glyph glyph-name="jingxiang" unicode="&#58913;" d="M512-76.8C257.496615-76.8 51.2 129.496615 51.2 384 51.2 638.503385 257.496615 844.8 512 844.8c254.503385 0 460.8-206.296615 460.8-460.8 0-254.503385-206.296615-460.8-460.8-460.8z m0 55.138462c224.059077 0 405.661538 181.602462 405.661538 405.661538C917.661538 608.059077 736.059077 789.661538 512 789.661538 287.940923 789.661538 106.338462 608.059077 106.338462 384c0-224.059077 181.602462-405.661538 405.661538-405.661538zM512 700.376615a27.569231 27.569231 0 0 0 0-55.138461 260.529231 260.529231 0 0 1-205.233231-99.564308 260.096 260.096 0 0 1-49.782154-104.644923 27.569231 27.569231 0 0 0-53.799384 11.972923 317.164308 317.164308 0 0 0 194.441846 226.067692A315.667692 315.667692 0 0 0 512 700.376615zM512 212.007385a171.992615 171.992615 0 1 0 0 343.98523 171.992615 171.992615 0 0 0 0-343.98523z m0 55.138461a116.854154 116.854154 0 1 1 0 233.708308 116.854154 116.854154 0 0 1 0-233.708308zM501.484308 394.515692m-39.384616 0a39.384615 39.384615 0 1 1 78.769231 0 39.384615 39.384615 0 1 1-78.769231 0ZM619.638154 670.208m-39.384616 0a39.384615 39.384615 0 1 1 78.769231 0 39.384615 39.384615 0 1 1-78.769231 0Z"  horiz-adv-x="1024" />

    
    <glyph glyph-name="jingxiangguanli" unicode="&#58954;" d="M512 576C403.2 576 320 492.8 320 384s83.2-192 192-192 192 83.2 192 192-83.2 192-192 192z m0-294.4c-57.6 0-102.4 44.8-102.4 102.4S454.4 486.4 512 486.4s102.4-44.8 102.4-102.4S569.6 281.6 512 281.6zM512 576V896C416 896 332.8 870.4 256 825.6l160-275.2c25.6 19.2 64 25.6 96 25.6zM320 384c0 70.4 38.4 134.4 96 166.4L256 825.6C102.4 736 0 576 0 384c0-281.6 230.4-512 512-512v320c-108.8 0-192 83.2-192 192zM1024 384c0 281.6-230.4 512-512 512v-320c108.8 0 192-83.2 192-192 0-70.4-38.4-134.4-96-166.4l160-275.2c153.6 89.6 256 249.6 256 441.6zM512 192v-320c96 0 179.2 25.6 256 70.4l-160 275.2c-25.6-19.2-64-25.6-96-25.6z"  horiz-adv-x="1024" />

    
    <glyph glyph-name="rongqijingxiangzhongxin" unicode="&#59002;" d="M576 747.5456V855.3984c2.8928-1.3184 5.7472-2.7264 8.576-4.224l321.2544-171.0336a153.6 153.6 0 0 0 81.4208-135.5776v-321.1264a153.6 153.6 0 0 0-81.408-135.5776l-321.28-171.0336c-2.816-1.4976-5.6704-2.9056-8.5632-4.224v107.8528a127.9232 127.9232 0 0 1 32.4736 11.9808l232.2688 123.648a128 128 0 0 1 67.84 112.9856V498.944a128 128 0 0 1-67.84 112.9856l-232.2688 123.648A127.9232 127.9232 0 0 1 576 747.5456zM448-87.04a153.8944 153.8944 0 0 0-7.7952 3.8656L118.9504 87.8592a153.6 153.6 0 0 0-81.4208 135.5776V544.5632a153.6 153.6 0 0 0 81.408 135.5776l321.28 171.0336c2.56 1.3696 5.1584 2.6624 7.7824 3.8656v-942.08zM406.8736 501.504c-34.304 0-63.5904-12.1344-87.8592-36.4032s-36.4032-53.5552-36.4032-87.8592c0-5.4784-1.92-10.1376-5.7472-13.9648-3.84-3.84-8.4864-5.7472-13.952-5.7472-5.4784 0-10.1376 1.92-13.952 5.7472-3.84 3.84-5.76 8.4864-5.76 13.952 0 45.2608 15.9616 83.8528 47.8976 115.7888 31.936 31.936 70.528 47.8976 115.776 47.8976H595.2l-65.7024 65.6896a18.56 18.56 0 0 0-5.4656 13.696c0 5.4656 1.92 10.112 5.7472 13.952 3.84 3.84 8.4864 5.7472 13.952 5.7472 5.4784 0 10.0352-1.8304 13.696-5.4784l100.7232-100.7232c4.0064-4.0192 6.016-8.6656 6.016-13.952 0-5.2992-2.0096-9.9456-6.016-13.9648l-97.9968-97.4464c-3.648-4.0064-8.2048-6.016-13.6832-6.016-5.4656 0-10.1248 1.92-13.952 5.7472-3.84 3.84-5.76 8.4864-5.76 13.952 0 5.4784 2.0096 10.2272 6.0288 14.2336l65.152 65.152H406.8608z m318.6048-73.9072c4.0192-3.648 6.016-8.2048 6.016-13.6832 0-45.248-15.9616-83.84-47.8976-115.776-31.9232-31.936-70.528-47.8976-115.776-47.8976H379.52l65.6896-65.7024c3.648-3.648 5.4784-8.2048 5.4784-13.6832 0-5.4656-1.92-10.1248-5.76-13.952-3.8272-3.84-8.4736-5.76-13.952-5.76a18.56 18.56 0 0 0-13.6832 5.4784l-100.736 100.736a20.1216 20.1216 0 0 0-5.4656 13.952c0 5.2864 1.8304 9.9456 5.4784 13.952l97.984 97.4464c3.648 4.0192 8.2176 6.016 13.696 6.016 5.4656 0 10.112-1.9072 13.952-5.7344 3.84-3.84 5.76-8.4864 5.76-13.952 0-5.4912-1.8432-10.048-5.4912-13.696l-65.6896-65.6896h191.0528c34.304 0 63.5904 12.1344 87.8592 36.4032s36.4032 53.5552 36.4032 87.8592c0 5.4784 1.92 10.1248 5.76 13.952 3.8272 3.84 8.4736 5.76 13.952 5.76 5.4784 0 10.0352-2.0096 13.696-6.016z"  horiz-adv-x="1024" />

    
    <glyph glyph-name="binghang" unicode="&#58904;" d="M34.133333 756.199619c0 19.504762 14.628571 34.133333 34.133334 34.133333H1024c19.504762 0 34.133333-14.628571 34.133333-34.133333 0-19.504762-14.628571-34.133333-34.133333-34.133333H68.266667c-19.504762 0-34.133333 14.628571-34.133334 34.133333zM34.133333 380.732952c0 19.504762 14.628571 34.133333 34.133334 34.133334H1024c19.504762 0 34.133333-14.628571 34.133333-34.133334 0-19.504762-14.628571-34.133333-34.133333-34.133333H68.266667c-19.504762 0-34.133333 14.628571-34.133334 34.133333zM34.133333 5.266286c0 19.504762 14.628571 34.133333 34.133334 34.133333H1024c19.504762 0 34.133333-14.628571 34.133333-34.133333 0-19.504762-14.628571-34.133333-34.133333-34.133334H68.266667c-19.504762 0-34.133333 14.628571-34.133334 34.133334zM409.6 848.847238h307.2c53.638095 0 97.52381-43.885714 97.52381-97.523809v-4.876191c0-53.638095-43.885714-97.52381-97.52381-97.523809H409.6c-53.638095 0-97.52381 43.885714-97.52381 97.523809v4.876191c0 53.638095 39.009524 97.52381 97.52381 97.523809zM711.92381 624.542476H409.6c-68.266667 0-121.904762 58.514286-121.904762 121.904762 0 73.142857 53.638095 126.780952 121.904762 126.780952h307.2c68.266667 0 121.904762-53.638095 121.904762-121.904761-4.87619-68.266667-58.514286-126.780952-126.780952-126.780953z m-302.32381 199.92381c-43.885714 0-73.142857-34.133333-73.142857-73.142857 0-43.885714 34.133333-78.019048 73.142857-78.019048h307.2c39.009524 0 73.142857 34.133333 73.142857 73.142857 0 43.885714-34.133333 78.019048-73.142857 78.019048H409.6zM409.6 488.009143h307.2c53.638095 0 97.52381-43.885714 97.52381-97.52381v-4.87619c0-53.638095-43.885714-97.52381-97.52381-97.52381H409.6c-53.638095 0-97.52381 43.885714-97.52381 97.52381v4.87619c0 53.638095 39.009524 97.52381 97.52381 97.52381zM711.92381 268.580571H409.6c-68.266667 0-121.904762 53.638095-121.904762 121.904762s53.638095 126.780952 121.904762 126.780953h307.2c68.266667 0 121.904762-53.638095 121.904762-121.904762-4.87619-73.142857-58.514286-126.780952-126.780952-126.780953z m-302.32381 195.047619c-43.885714 0-73.142857-29.257143-73.142857-73.142857s34.133333-78.019048 73.142857-78.019047h307.2c39.009524 0 73.142857 34.133333 73.142857 73.142857 0 43.885714-34.133333 78.019048-73.142857 78.019047H409.6zM409.6 112.542476h307.2c53.638095 0 97.52381-43.885714 97.52381-97.523809v-4.876191c0-53.638095-43.885714-97.52381-97.52381-97.523809H409.6c-53.638095 0-97.52381 43.885714-97.52381 97.523809v4.876191c0 58.514286 39.009524 97.52381 97.52381 97.523809zM711.92381-106.886095H409.6c-68.266667 0-121.904762 53.638095-121.904762 121.904762s53.638095 126.780952 121.904762 126.780952h307.2c68.266667 0 121.904762-53.638095 121.904762-121.904762-4.87619-73.142857-58.514286-126.780952-126.780952-126.780952z m-302.32381 195.047619c-39.009524 0-73.142857-34.133333-73.142857-73.142857 0-43.885714 34.133333-78.019048 73.142857-78.019048h307.2c39.009524 0 73.142857 34.133333 73.142857 73.142857 0 43.885714-34.133333 78.019048-73.142857 78.019048H409.6z"  horiz-adv-x="1072" />

    
    <glyph glyph-name="guanfangbanben" unicode="&#58908;" d="M782.208 365.28L724.288 448l57.92 82.72a32 32 0 0 1-20.672 49.856l-99.456 17.536-17.536 99.456a32 32 0 0 1-49.856 20.672L512 660.288l-82.72 57.92a32 32 0 0 1-49.856-20.672l-17.536-99.456-99.456-17.504a32 32 0 0 1-20.672-49.856L299.712 448l-57.92-82.72a32 32 0 0 1 20.672-49.856l99.456-17.536 17.536-99.456a32 32 0 0 1 49.856-20.672L512 235.712l82.72-57.92a32 32 0 0 1 49.856 20.672l17.536 99.456 99.456 17.536a31.968 31.968 0 0 1 20.64 49.824z m-123.2 64.352l41.952-59.904-72.032-12.704a32 32 0 0 1-25.952-25.952l-12.704-72.032-59.904 41.952a32 32 0 0 1-36.704 0L433.76 259.04l-12.704 72.032a32 32 0 0 1-25.952 25.952l-72.032 12.704 41.952 59.904a32 32 0 0 1 0 36.704l-41.952 59.904 72.032 12.704a32 32 0 0 1 25.952 25.952l12.704 72.032 59.904-41.952a32 32 0 0 1 36.704 0l59.904 41.952 12.704-72.032a32 32 0 0 1 25.952-25.952l72.032-12.704-41.952-59.904a32 32 0 0 1 0-36.704zM512 861.088c-243.008 0-440-196.992-440-440a438.72 438.72 0 0 1 133.344-315.552 32 32 0 1 1 44.608 45.888A374.752 374.752 0 0 0 136 421.088c0 207.648 168.352 376 376 376s376-168.352 376-376c0-99.136-38.496-192.096-106.144-261.824a32 32 0 1 1 45.92-44.576A438.56 438.56 0 0 1 952 421.088c0 243.008-196.992 440-440 440zM704 134.912a32 32 0 0 1-32-32v-107.104l-142.24 94.848-0.064 0.032a32 32 0 0 1-11.552 4.736c-2.048 0.416-4.096 0.032-6.144 0.032s-4.096 0.352-6.144-0.032c-4.096-0.8-8-2.4-11.552-4.736l-0.064-0.032L352-4.224V96a32 32 0 0 1-64 0v-160c0-0.992 0.48-1.856 0.576-2.848a32.256 32.256 0 0 1 3.712-12.224c0.48-0.864 0.544-1.856 1.088-2.688 0.576-0.896 1.504-1.344 2.176-2.144a31.36 31.36 0 0 1 21.472-11.488c1.024-0.096 1.92-0.608 2.976-0.608 0.992 0 1.856 0.48 2.848 0.576a32.256 32.256 0 0 1 12.256 3.712c0.864 0.48 1.856 0.544 2.688 1.088L512 25.536l174.24-116.16c14.688-9.792 34.56-5.824 44.384 8.864a31.584 31.584 0 0 1 4.768 21.664c0.096 1.056 0.608 1.952 0.608 3.04V102.912a32 32 0 0 1-32 32z"  horiz-adv-x="1024" />

    
    <glyph glyph-name="guanfangrenzheng" unicode="&#58896;" d="M512 384m-340.672 0a340.672 340.672 0 1 1 681.344 0 340.672 340.672 0 1 1-681.344 0ZM975.936 528.64c-52.352 31.808-96.128 108.416-97.152 170.304-1.024 61.824-51.136 104.448-111.424 94.784-60.416-9.664-142.4 20.608-182.464 67.264s-105.6 46.656-145.664 0c-40.064-46.72-122.112-76.992-182.464-67.328-60.288 9.728-110.528-32.896-111.616-94.72-1.024-61.888-44.672-138.496-97.024-170.304S-15.552 431.488 22.912 383.424s53.568-135.168 33.728-193.664c-19.968-58.432 12.864-115.904 72.768-127.68 59.968-11.776 126.848-68.672 148.8-126.4 21.824-57.728 83.456-80.384 136.768-50.432 53.504 30.016 140.8 30.016 194.24 0 53.312-29.952 114.944-7.296 136.768 50.432 21.888 57.728 88.832 114.624 148.8 126.4 59.904 11.776 92.672 69.248 72.832 127.68-19.968 58.496-4.8 145.6 33.664 193.664 38.272 48.064 26.88 113.408-25.344 145.216z m-500.992-416.192L248.64 338.752l90.496 90.496 135.808-135.808 226.304 226.304 90.496-90.496-316.8-316.8z"  horiz-adv-x="1024" />

    
    <glyph glyph-name="guanfang" unicode="&#58979;" d="M512 825.685333c243.029333 0 441.045333-198.016 441.045333-441.088 0-243.029333-197.973333-441.045333-441.045333-441.045333-243.029333 0-441.045333 197.418667-441.045333 440.448C70.954667 627.029333 268.928 825.685333 512 825.685333zM512 896C229.461333 896 0 666.538667 0 384s228.864-512 512-512c282.538667 0 512 229.461333 512 512S794.538667 896 512 896zM477.397333 244.352a34.389333 34.389333 0 0 0-24.490666 10.410667l-70.4 69.674666a35.370667 35.370667 0 0 0 0 49.493334 35.541333 35.541333 0 0 0 49.578666 0l69.802667-69.674667a35.370667 35.370667 0 0 0 0-49.493333 31.189333 31.189333 0 0 0-24.490667-10.410667zM503.808 244.352a38.058667 38.058667 0 0 0-27.178667 11.52 39.253333 39.253333 0 0 0 0 54.869333l155.392 155.178667a39.381333 39.381333 0 0 0 54.954667 0 39.253333 39.253333 0 0 0 0-54.869333l-155.349333-155.178667a36.949333 36.949333 0 0 0-27.818667-11.52zM645.376 104.746667a35.669333 35.669333 0 0 0-11.349333 1.877333l-99.072 32.256-99.072-32.256a36.053333 36.053333 0 0 0-43.52 17.706667l-47.36 92.928-92.714667 47.445333a36.181333 36.181333 0 0 0-17.664 43.605333l32.170667 99.285334-32.170667 99.285333a36.181333 36.181333 0 0 0 17.664 43.605333l92.757333 47.445334L392.96 690.218667a36.053333 36.053333 0 0 0 43.52 17.706666l99.072-32.256 99.072 32.256a36.053333 36.053333 0 0 0 43.52-17.706666L725.546667 597.333333l92.714666-47.445333c15.786667-8.192 23.338667-26.538667 17.664-43.605333l-32.170666-99.285334 32.170666-99.242666c5.674667-17.066667-1.877333-35.413333-17.664-43.648l-92.757333-47.402667-47.317333-92.970667a37.845333 37.845333 0 0 0-32.810667-18.944z m-110.421333 108.117333c3.797333 0 7.594667-0.64 11.349333-1.92l80.768-25.898667 38.485333 75.861334a34.730667 34.730667 0 0 0 15.786667 15.786666l75.733333 38.570667-25.898666 80.938667a33.28 33.28 0 0 0 0 22.144l25.898666 80.938666-75.733333 38.570667a34.730667 34.730667 0 0 0-15.786667 15.786667l-38.485333 75.904-80.768-25.941334a33.109333 33.109333 0 0 0-22.058667 0l-80.768 25.941334-38.485333-75.904a34.730667 34.730667 0 0 0-15.786667-15.786667l-75.733333-38.570667 25.898667-80.938666a33.28 33.28 0 0 0 0-22.144l-26.538667-80.938667 75.733333-38.570667a34.730667 34.730667 0 0 0 15.786667-15.786666l38.485333-75.861334 80.768 25.898667a35.669333 35.669333 0 0 0 11.349334 1.92zM325.802667 58.197333c-26.112 0-46.506667 12.074667-46.506667 26.496v40.064c0 14.890667 21.205333 26.496 46.506667 26.496 25.344 0 46.549333-12.074667 46.549333-26.496v-40.064c0-14.421333-20.394667-26.496-46.506667-26.496zM744.746667 58.197333c-26.154667 0-46.549333 12.074667-46.549334 26.496v40.064c0 14.890667 21.205333 26.496 46.506667 26.496 25.344 0 46.549333-12.074667 46.549333-26.496v-40.064c0-14.421333-20.394667-26.496-46.506666-26.496z"  horiz-adv-x="1024" />

    
    <glyph glyph-name="jinsique" unicode="&#59049;" d="M1260.781243 774.462043q-60.899797-86.432464-127.971143-134.388939v-32.027414q0-281.644247-199.952025-508.852664T396.76441-128q-217.650981 0-396.76441 115.227895c12.743248-2.139265 33.04318-3.078079 60.776674-3.078079q179.282723 0 323.198317 111.949741-83.200481 3.078079-150.410341 52.835229-67.194469 49.510904-92.727136 126.262809 31.950462-6.433186 48.033426-6.433185a264.714812 264.714812 0 0 1 70.3495 9.588216q-89.633666 16.067573-148.717396 88.125408T51.188457 531.263004v6.294672q63.931705-35.151665 115.243286-35.167055-111.965131 76.782686-112.088255 217.60481 0 73.581483 32.027415 127.971143 208.031983-252.864207 534.446892-268.793267c-4.29392 25.594229-6.433186 44.878395-6.433185 57.621643q0 108.733148 75.135913 183.946013T873.60505 896q115.166334 0 188.732427-79.922327 89.633666 19.099481 163.276711 60.761284-28.918554-92.850259-112.088254-140.822124a621.371849 621.371849 0 0 1 147.255309 38.47599z m0 0M620.98709 578.588472q-326.276396 16.175306-534.154476 268.777877-31.965853-54.451221-32.027414-127.955753 0-140.914466 112.088255-217.6202-51.250019 0-115.243286 35.182445v-6.310062q0-92.850259 59.268415-164.78497t148.763568-88.125408a264.714812 264.714812 0 0 0-70.3495-9.588217q-16.067573 0-48.033426 6.433186 25.532667-76.782686 92.665574-126.324371t150.487293-52.85062l-4.078455-3.078079 2.170046 0.600225c342.282408 97.359645 250.093936 446.106019 238.443406 485.643947z"  horiz-adv-x="1260" />

    
    <glyph glyph-name="dockerrongqi" unicode="&#59206;" d="M512 384m-512 0a512 512 0 1 1 1024 0 512 512 0 1 1-1024 0ZM590.716343 408.868571h-73.142857v64.365715h73.142857v-64.365715z m0 223.817143h-73.142857v-67.291428h73.142857V632.685714z m84.845714-159.451428h-73.142857v-64.365715h73.142857v64.365715z m-171.154286 78.994285h-73.142857V486.4h73.142857v65.828571z m86.308572 0h-73.142857V486.4h73.142857v65.828571z m304.274286-108.251428c-16.091429 10.24-52.662857 14.628571-80.457143 8.777143-2.925714 26.331429-19.017143 49.737143-45.348572 70.217143l-16.091428 10.24-10.24-14.628572c-20.48-30.72-24.868571-80.457143-4.388572-114.102857-10.24-5.851429-29.257143-11.702857-52.662857-11.702857h-478.354286c-10.24-55.588571 7.314286-128.731429 48.274286-177.005714 40.96-48.274286 102.4-71.68 181.394286-71.68 172.617143 0 301.348571 78.994286 361.325714 223.817142 23.405714 0 74.605714 0 99.474286 49.737143 1.462857 1.462857 7.314286 14.628571 8.777143 19.017143l-11.702857 7.314286z m-561.737143 29.257143h-73.142857v-64.365715h73.142857v64.365715z m84.845714 0h-73.142857v-64.365715h73.142857v64.365715z m86.308571 0h-73.142857v-64.365715h73.142857v64.365715z m-86.308571 78.994285h-73.142857V486.4h73.142857v65.828571z"  horiz-adv-x="1024" />

    
    <glyph glyph-name="wuliji" unicode="&#59022;" d="M860.16 199.68v-122.88H163.84v122.88h696.32m0 40.96H163.84a40.96 40.96 0 0 1-40.96-40.96v-122.88a40.96 40.96 0 0 1 40.96-40.96h696.32a40.96 40.96 0 0 1 40.96 40.96v122.88a40.96 40.96 0 0 1-40.96 40.96zM655.36 158.72m20.48 0l81.92 0q20.48 0 20.48-20.48l0 0q0-20.48-20.48-20.48l-81.92 0q-20.48 0-20.48 20.48l0 0q0 20.48 20.48 20.48ZM860.16 445.44v-122.88H163.84v122.88h696.32m0 40.96H163.84a40.96 40.96 0 0 1-40.96-40.96v-122.88a40.96 40.96 0 0 1 40.96-40.96h696.32a40.96 40.96 0 0 1 40.96 40.96v122.88a40.96 40.96 0 0 1-40.96 40.96zM655.36 404.48m20.48 0l81.92 0q20.48 0 20.48-20.48l0 0q0-20.48-20.48-20.48l-81.92 0q-20.48 0-20.48 20.48l0 0q0 20.48 20.48 20.48ZM860.16 691.2v-122.88H163.84V691.2h696.32m0 40.96H163.84a40.96 40.96 0 0 1-40.96-40.96v-122.88a40.96 40.96 0 0 1 40.96-40.96h696.32a40.96 40.96 0 0 1 40.96 40.96V691.2a40.96 40.96 0 0 1-40.96 40.96zM655.36 650.24m20.48 0l81.92 0q20.48 0 20.48-20.48l0 0q0-20.48-20.48-20.48l-81.92 0q-20.48 0-20.48 20.48l0 0q0 20.48 20.48 20.48Z"  horiz-adv-x="1024" />

    
    <glyph glyph-name="helmrepo" unicode="&#58960;" d="M512 859.428571a36.571429 36.571429 0 0 0 36.571429-36.571428v-73.142857l-0.073143-1.645715c59.684571-5.376 116.553143-23.881143 167.131428-53.577142a30.098286 30.098286 0 0 0 2.413715 5.266285l36.571428 63.341715a36.571429 36.571429 0 0 0 63.341714-36.571429l-36.571428-63.341714a36.498286 36.498286 0 0 0-8.228572-9.801143c10.093714-8.557714 19.748571-17.700571 29.001143-27.318857a36.571429 36.571429 0 0 0-52.736-50.688A328.045714 328.045714 0 0 1 512 676.571429a328.045714 328.045714 0 0 1-237.238857-101.010286A36.571429 36.571429 0 0 0 221.988571 626.285714c9.216 9.545143 18.834286 18.614857 28.818286 27.172572a35.291429 35.291429 0 0 0-8.228571 9.728l-36.571429 63.341714a36.571429 36.571429 0 0 0 63.341714 36.571429l36.571429-63.341715c0.987429-1.718857 1.828571-3.510857 2.56-5.302857a399.286857 399.286857 0 0 0 166.985143 53.613714A12.873143 12.873143 0 0 0 475.428571 749.714286V822.857143a36.571429 36.571429 0 0 0 36.571429 36.571428zM512-91.42857100000003a36.571429 36.571429 0 0 1 36.571429 36.571428v73.142857l-0.073143 1.645715a400.420571 400.420571 0 0 1 167.131428 53.577142c0.585143-1.792 1.426286-3.547429 2.413715-5.266285l36.571428-63.341715a36.571429 36.571429 0 0 1 63.341714 36.571429l-36.571428 63.341714a36.498286 36.498286 0 0 1-8.228572 9.801143c10.093714 8.557714 19.748571 17.700571 29.001143 27.318857a36.571429 36.571429 0 0 1-52.736 50.688A328.045714 328.045714 0 0 0 512 91.42857100000003a328.045714 328.045714 0 0 0-237.238857 101.010286 36.571429 36.571429 0 0 1-52.736-50.724571c9.216-9.545143 18.834286-18.614857 28.818286-27.172572a35.291429 35.291429 0 0 1-8.228572-9.728l-36.571428-63.341714a36.571429 36.571429 0 0 1 63.341714-36.571429l36.571428 63.341715c0.987429 1.718857 1.828571 3.510857 2.56 5.302857 50.432-29.732571 107.300571-48.237714 166.985143-53.613714A12.873143 12.873143 0 0 1 475.428571 18.285713999999984v-73.142857a36.571429 36.571429 0 0 1 36.571429-36.571428zM212.114286 530.285714a29.257143 29.257143 0 0 0 29.257143-29.257143v-234.057142a29.257143 29.257143 0 1 0-58.514286 0l-0.036572 95.122285h-87.771428L95.085714 266.97142899999994a29.257143 29.257143 0 1 0-58.514285 0v234.057142a29.257143 29.257143 0 1 0 58.514285 0l-0.036571-80.420571h87.771428L182.857143 501.028571a29.257143 29.257143 0 0 0 29.257143 29.257143zM446.171429 530.285714a29.257143 29.257143 0 1 0 0-58.514285l-95.122286 0.036571v-51.2L446.171429 420.571429a29.257143 29.257143 0 1 0 0-58.514286l-95.122286 0.036571V296.228571H446.171429a29.257143 29.257143 0 1 0 0-58.514285H321.828571a29.257143 29.257143 0 0 0-29.257142 29.257143v234.057142a29.257143 29.257143 0 0 0 29.257142 29.257143h124.342858zM541.257143 237.71428600000002a29.257143 29.257143 0 0 0-29.257143 29.257143v234.057142a29.257143 29.257143 0 1 0 58.514286 0l-0.036572-204.8H665.6a29.257143 29.257143 0 1 0 0-58.514285h-124.342857zM770.157714 430.006857l66.084572-66.596571a29.257143 29.257143 0 0 1 42.678857 1.243428l52.150857 59.026286V266.97142899999994a29.257143 29.257143 0 1 1 58.514286 0v234.057142c0 26.953143-33.353143 39.570286-51.2 19.382858l-82.651429-93.622858-94.061714 94.829715a29.257143 29.257143 0 0 1-50.029714-20.589715v-234.057142a29.257143 29.257143 0 1 1 58.514285 0v163.035428z"  horiz-adv-x="1024" />

    
    <glyph glyph-name="qushi" unicode="&#58895;" d="M128 224h128v-224H128zM340.8 352h128v-352h-128zM555.2 240h128v-240h-128zM768 480h128v-480h-128zM960 768H704l96-96-243.2-243.2-180.8 180.8L51.2 284.8 96 240l280 280L512 384l44.8-44.8 288 288L960 512z"  horiz-adv-x="1024" />

    
    <glyph glyph-name="haoshi" unicode="&#58974;" d="M512-86.38171399999999c-262.582857 0-475.428571 211.675429-475.428571 472.868571C36.571429 647.753143 249.417143 859.428571 512 859.428571s475.428571-211.675429 475.428571-472.941714c0-261.193143-212.845714-472.868571-475.428571-472.868571z m0 73.142857c222.208 0 402.285714 178.980571 402.285714 399.725714S734.208 786.285714 512 786.285714 109.714286 607.232 109.714286 386.486857c0-220.745143 180.077714-399.725714 402.285714-399.725714zM548.571429 410.112l200.192-107.958857a36.571429 36.571429 0 0 0-34.669715-64.365714L475.428571 366.44571399999995V666.697143a36.571429 36.571429 0 1 0 73.142858 0v-256.658286z"  horiz-adv-x="1024" />

    
    <glyph glyph-name="zhixing" unicode="&#59479;" d="M512-128c283.569231 0 512 228.430769 512 512S791.630769 896 512 896 0 667.569231 0 384s228.430769-512 512-512z m0 78.769231C271.753846-49.23076900000001 78.769231 143.75384599999995 78.769231 384S271.753846 817.230769 512 817.230769s433.230769-192.984615 433.230769-433.230769-196.923077-433.230769-433.230769-433.230769zM697.107692 340.676923l-244.184615-157.538461c-23.630769-15.753846-59.076923-7.876923-74.830769 15.753846-3.938462 7.876923-7.876923 19.692308-7.876923 27.56923V541.538462c0 27.569231 23.630769 55.138462 55.138461 55.138461 11.815385 0 19.692308-3.938462 27.569231-7.876923l244.184615-157.538462c23.630769-15.753846 31.507692-47.261538 15.753846-74.830769-3.938462-7.876923-7.876923-11.815385-15.753846-15.753846z"  horiz-adv-x="1024" />

    
    <glyph glyph-name="chenggong" unicode="&#59015;" d="M512-128c-5.12 0-7.68 0-12.8 2.56L76.8 117.76c-7.68 5.12-12.8 12.8-12.8 23.04v486.4c0 10.24 5.12 17.92 12.8 23.04L499.2 893.44c7.68 5.12 17.92 5.12 25.6 0L947.2 650.24c7.68-5.12 12.8-12.8 12.8-23.04v-486.4c0-10.24-5.12-17.92-12.8-23.04l-422.4-243.2c-5.12-2.56-7.68-2.56-12.8-2.56zM115.2 156.16L512-71.68l396.8 227.84V611.84L512 839.68 115.2 611.84v-455.68zM455.68 197.12c-7.68 0-12.8 2.56-17.92 7.68l-174.08 174.08c-10.24 10.24-10.24 25.6 0 35.84s25.6 10.24 35.84 0l156.16-156.16 273.92 273.92c10.24 10.24 25.6 10.24 35.84 0s10.24-25.6 0-35.84L473.6 204.8c-5.12-5.12-12.8-7.68-17.92-7.68z"  horiz-adv-x="1024" />

    
    <glyph glyph-name="filter" unicode="&#59073;" d="M844.16 600.064c4.8 4.8 9.6 9.6 12.8 16.064a104.96 104.96 0 0 1 8.064 115.904c-20.864 35.392-53.12 53.12-94.912 53.12H235.84c-9.664 0-20.928 0-28.992-3.2C184.32 775.424 164.992 762.496 150.528 744.832A107.904 107.904 0 0 1 128 680.512c0-30.592 11.264-56.32 32.192-75.648C229.376 538.944 296.96 469.696 362.88 403.712l1.6-1.6v-222.08a42.624 42.624 0 0 1 17.728-30.592 30.72 30.72 0 0 1 28.992 0c12.8 6.4 20.864 19.328 20.864 37.056V413.376a46.08 46.08 0 0 1-12.8 33.792 2811.136 2811.136 0 0 0-96.64 101.376 5901.312 5901.312 0 0 1-101.376 104.64l-1.6 1.6h-1.6l-3.2 3.2-3.2 3.2c-6.464 8.064-8.064 16.128-4.864 27.392 6.4 12.864 16.064 25.728 30.592 25.728h537.472c8.064 0 14.528-4.8 20.928-11.264 6.4-9.6 9.664-20.928 6.4-32.192-1.536-6.4-4.8-9.6-11.2-16-74.048-72.512-144.832-141.696-218.88-217.344-8.064-8-16.064-17.664-16.064-35.392v-376.576c0-4.8 0-16.064 8-25.728v-1.6s3.2-4.864 12.928-9.664c14.464-4.864 27.328 0 27.328 0l3.2 3.2c14.464 11.264 14.464 27.328 14.464 36.992V389.312l1.664 1.6c36.992 36.992 75.584 72.448 112.64 107.84 36.992 33.792 72.384 67.584 107.84 101.376M929.408 110.848H725.12a30.528 30.528 0 0 1-30.592-30.592v-9.6c0-19.328 16.128-30.592 30.592-30.592h204.352a30.528 30.528 0 0 1 30.592 30.592v9.6c-1.6 19.328-12.864 30.592-30.592 30.592M929.408 350.656H725.12A30.464 30.464 0 0 1 694.4 320v-4.864c0-19.264 16.128-30.528 30.592-30.528h204.352A30.464 30.464 0 0 1 960 315.2v4.864c-1.6 17.728-12.864 30.592-30.592 30.592M929.408 233.152H725.12a30.464 30.464 0 0 1-30.592-30.592v-6.4c0-19.328 16.128-30.592 30.592-30.592h204.352a30.464 30.464 0 0 1 30.592 30.592v6.4c-1.6 14.528-12.864 30.592-30.592 30.592"  horiz-adv-x="1024" />

    
    <glyph glyph-name="rongqifuwu" unicode="&#58930;" d="M785.0624-25.6H238.9376A136.5376 136.5376 0 0 0 102.4 110.9376v34.944a27.3024 27.3024 0 1 0 54.6176 0v-34.944a81.92 81.92 0 0 1 81.92-81.92h546.1248a81.92 81.92 0 0 1 81.92 81.92v198.784a27.3024 27.3024 0 0 0 54.6176 0v-198.784C921.6 35.5328 860.4672-25.6 785.0624-25.6z m-655.36 363.7248A27.3024 27.3024 0 0 0 102.4 365.4272V657.0624C102.4 732.4672 163.5328 793.6 238.9376 793.6h546.1248C860.4672 793.6 921.6 732.4672 921.6 657.0624v-74.2656a27.3024 27.3024 0 1 0-54.6176 0v74.2656a81.92 81.92 0 0 1-81.92 81.92H238.9376a81.92 81.92 0 0 1-81.92-81.92V365.44a27.3024 27.3024 0 0 0-27.3152-27.3024zM512 118.5792a58.432 58.432 0 0 0-27.3024 7.6416l-182.4128 104.32a54.6176 54.6176 0 0 0-28.4032 49.152V488.3072a54.6176 54.6176 0 0 0 28.4032 49.152l182.4 104.32a58.432 58.432 0 0 0 54.6176 0l181.3248-104.32a54.6176 54.6176 0 0 0 28.3904-49.152v-208.6144a54.6176 54.6176 0 0 0-28.3904-49.152l-181.3248-104.32c-8.6528-4.928-18.432-7.552-28.3904-7.6416H512z m0 491.52a18.0224 18.0224 0 0 1-9.28 0l-181.8624-105.408a19.1104 19.1104 0 0 1-9.8304-16.384v-208.6144c0.1152-6.8352 3.8528-13.0688 9.8304-16.384l181.312-104.32a18.56 18.56 0 0 1 18.56 0l182.4128 104.32c5.9776 3.3152 9.728 9.5488 9.8304 16.384V488.3072a19.1104 19.1104 0 0 1-9.8304 16.384l-181.8624 104.32a18.0224 18.0224 0 0 1-9.28 0v1.088zM512 112.0256a64.9984 64.9984 0 0 0-31.68 8.192l-181.312 104.32a66.0864 66.0864 0 0 0-32.2176 54.6048V488.3072a66.0864 66.0864 0 0 0 32.2176 54.6176l181.312 104.8576a65.536 65.536 0 0 0 63.36 0l181.312-104.32a64.448 64.448 0 0 0 32.2176-54.6048v-209.1648a64.448 64.448 0 0 0-32.2176-54.6176l-181.312-104.8576a63.9104 63.9104 0 0 0-31.68-8.192z m0 530.304a54.6176 54.6176 0 0 1-27.3024-6.5664L305.5616 531.456a54.6176 54.6176 0 0 1-25.1264-43.136v-208.64a54.6176 54.6176 0 0 1 25.1264-43.136l179.136-104.32a51.328 51.328 0 0 1 50.24 0l181.312 104.32a50.24 50.24 0 0 1 25.1264 43.136v208.64a50.24 50.24 0 0 1-25.1264 43.136l-176.9472 104.32A54.6176 54.6176 0 0 1 512 642.304z m0-491.52a28.9408 28.9408 0 0 0-13.1072 3.264l-181.312 103.2192a26.752 26.752 0 0 0-12.5696 22.4V488.3072a26.752 26.752 0 0 0 12.5696 22.4l181.312 104.3072a27.8528 27.8528 0 0 0 26.2144 0l181.312-104.32a26.752 26.752 0 0 0 12.5696-22.3872v-208.6144a26.752 26.752 0 0 0-12.5696-22.4l-181.8624-104.3072c-3.8272-2.176-8.1536-3.3024-12.5568-3.2768v1.088z m0 454.912a10.9184 10.9184 0 0 1-6.016 0L324.6848 498.688a11.4688 11.4688 0 0 1-3.8144-10.368v-208.64a11.4688 11.4688 0 0 1 6.0032-10.368l181.312-104.32c3.712-2.1376 8.3072-2.1376 12.0192 0l179.136 104.32a11.4688 11.4688 0 0 1 3.8144 10.368v208.64a11.4688 11.4688 0 0 1-6.0032 10.368l-179.136 104.32a10.9184 10.9184 0 0 1-6.0032 1.6256v1.1008zM531.1104 138.24h-38.2208V392.7424l218.4448 125.6064 18.5728-32.768-198.784-114.688zM539.3024 131.136h-54.6048V396.5568l227.7376 131.072 25.664-44.7744-198.784-115.7888v-235.9296z m-37.6832 13.6576h24.0384V374.72l195.5072 113.0496-12.0064 21.2992-209.1776-120.1536 1.6384-244.1216zM293.5424 485.5808l18.5728 34.944 209.1648-120.1408-18.56-32.768zM504.896 356.6976L286.464 483.392l25.664 44.7872 218.4576-126.7072-25.6768-44.7744zM302.848 487.7696l197.1456-113.0496 12.0192 20.7488-197.1584 113.6-12.0064-21.2992z"  horiz-adv-x="1024" />

    
    <glyph glyph-name="xiangmuloading" unicode="&#58885;" d="M242.483 896h666.368c59.136-6.1952 108.442-55.7056 115.149-114.637v-666.573c-5.376-37.0176-25.088-72.3968-56.7808-93.0816-20.5824-14.6432-45.7728-20.1216-70.5536-22.4256-2.048-33.1264-13.9264-66.3552-38.1952-89.7024-20.3776-21.0944-48.384-32.8704-76.9024-37.5808H115.046C56.064-121.45000000000005 6.5024-72.29399999999998 0-13.210000000000036V653.363c4.5568 28.6208 16.4352 56.576 37.4784 77.0048 23.3472 24.2688 56.576 36.352 89.7536 38.2976 2.2016 24.6272 7.7824 49.6128 22.2208 70.1952C170.035 870.7072000000001 205.414 890.5728 242.483 896m-25.7536-77.6704c-16.0768-11.7248-23.3472-31.1296-25.2928-50.2784 190.413-0.1024 380.877-0.0512 571.341 0 70.2464 4.352 135.066-57.6 133.12-128.051 0.256-192.102 0-384.256 0.1024-576.41 34.2016 0.6656 64.8704 30.0032 63.7952 64.8192 0.3072 213.094 0.3072 426.24 0 639.334 0.9728 34.1504-29.4912 65.024-63.744 63.9488-209.971 0.3584-419.942-0.1024-629.914 0.256-17.3056 0.512-35.7376-2.1504-49.408-13.6192m-112.64-119.091c-25.6512-9.8816-41.8304-37.2224-40.0896-64.4608-0.4608-211.558 0.1024-423.219 0.1536-634.829-0.768-34.4576 30.1056-64.7168 64.4608-63.8976 212.992-0.3584 425.984-0.3584 638.925 0 34.2016-0.7168 64.9216 29.3888 64.256 63.6928 0.2048 206.592 0.4608 413.184 0.3072 619.776-0.1536 15.9232 0.8192 32.768-6.2464 47.5136-10.1888 22.1696-33.7408 37.2736-58.2144 36.7104-204.698 0.256-409.446-0.1024-614.144 0.1536-16.4864-0.3072-33.6896 1.5872-49.408-4.6592ZM145.818 636.723c8.8064 3.9936 18.7392 3.072 28.1088 3.4304 123.085-0.4608 246.17 0.2048 369.203-0.3584 22.8352 1.792 40.448-25.088 29.7984-45.312-5.7856-13.6192-21.248-19.6096-35.2768-18.6368-124.672 0.0512-249.446-0.1536-374.17 0.0512-12.4416-0.4096-25.4976 5.1712-31.4368 16.5888-9.0112 15.2576-2.2528 36.8128 13.7728 44.2368ZM723.814 637.594c21.504 9.984 48.1792-10.5472 43.8272-33.8944-2.1504-23.6032-33.4336-36.352-51.456-20.7872-19.0976 13.6704-14.4384 46.6944 7.6288 54.6816ZM64.9216 511.949c255.334 0.0512 510.72 0.0512 766.054 0 0.768-21.2992 0.7168-42.6496 0-63.9488-255.386-0.3072-510.771-0.3072-766.157 0-0.5632 21.3504-0.6144 42.6496 0.1024 63.9488ZM235.776 330.44500000000005c37.0688 3.072 77.9776 10.1888 112.077-9.0624 40.8064-24.4224 38.656-91.4432 0.3072-117.248-22.8864-14.9504-51.456-17.7664-78.1312-15.0016 0-30.464-0.3072-60.9792 0.256-91.4944-12.032-0.3072-24.0128-0.256-36.0448-0.512 0.8192 77.7728-2.1504 155.699 1.536 233.318m33.8944-26.4704c0.512-28.672 0.4608-57.344 0.0512-86.016 15.8208-1.9968 32.512-3.3792 47.4624 3.3792 28.0576 12.0832 33.8432 56.2688 10.0352 75.1616-16.5888 12.288-38.3488 9.9328-57.5488 7.4752ZM449.536 332.79999999999995c15.0528 0.2048 30.1056 0.0512 45.2096-0.7168 18.6368-61.3888 39.4752-122.112 54.8352-184.422 13.312 63.0784 36.864 123.136 55.7568 184.576 14.8992 0.6144 29.7472 0.6656 44.6464 0.6144 5.2224-78.3872 8.9088-156.877 14.592-235.213-11.52-0.3072-22.9888-0.256-34.5088-0.512-3.072 65.2288-8.3456 130.355-7.9872 195.686-21.0944-64.2048-40.2944-129.28-62.5152-193.178-9.0112 0.3584-17.9712 0.6144-26.9824 0.8192-17.664 64.4096-42.4448 127.078-53.8624 193.075-6.7072-65.1264-7.2192-130.867-11.6736-196.25-11.1104 0.0512-22.1696 0-33.28 0 5.5808 78.4896 11.4176 156.979 15.7696 235.52Z"  horiz-adv-x="1024" />

    
    <glyph glyph-name="pm-green" unicode="&#58886;" d="M242.483 896h666.368c59.136-6.1952 108.442-55.7056 115.149-114.637v-666.573c-5.376-37.0176-25.088-72.3968-56.7808-93.0816-20.5824-14.6432-45.7728-20.1216-70.5536-22.4256-2.048-33.1264-13.9264-66.3552-38.1952-89.7024-20.3776-21.0944-48.384-32.8704-76.9024-37.5808H115.046C56.064-121.45000000000005 6.5024-72.29399999999998 0-13.210000000000036V653.363c4.5568 28.6208 16.4352 56.576 37.4784 77.0048 23.3472 24.2688 56.576 36.352 89.7536 38.2976 2.2016 24.6272 7.7824 49.6128 22.2208 70.1952C170.035 870.7072000000001 205.414 890.5728 242.483 896m-25.7536-77.6704c-16.0768-11.7248-23.3472-31.1296-25.2928-50.2784 190.413-0.1024 380.877-0.0512 571.341 0 70.2464 4.352 135.066-57.6 133.12-128.051 0.256-192.102 0-384.256 0.1024-576.41 34.2016 0.6656 64.8704 30.0032 63.7952 64.8192 0.3072 213.094 0.3072 426.24 0 639.334 0.9728 34.1504-29.4912 65.024-63.744 63.9488-209.971 0.3584-419.942-0.1024-629.914 0.256-17.3056 0.512-35.7376-2.1504-49.408-13.6192m-112.64-119.091c-25.6512-9.8816-41.8304-37.2224-40.0896-64.4608-0.4608-211.558 0.1024-423.219 0.1536-634.829-0.768-34.4576 30.1056-64.7168 64.4608-63.8976 212.992-0.3584 425.984-0.3584 638.925 0 34.2016-0.7168 64.9216 29.3888 64.256 63.6928 0.2048 206.592 0.4608 413.184 0.3072 619.776-0.1536 15.9232 0.8192 32.768-6.2464 47.5136-10.1888 22.1696-33.7408 37.2736-58.2144 36.7104-204.698 0.256-409.446-0.1024-614.144 0.1536-16.4864-0.3072-33.6896 1.5872-49.408-4.6592ZM145.818 636.723c8.8064 3.9936 18.7392 3.072 28.1088 3.4304 123.085-0.4608 246.17 0.2048 369.203-0.3584 22.8352 1.792 40.448-25.088 29.7984-45.312-5.7856-13.6192-21.248-19.6096-35.2768-18.6368-124.672 0.0512-249.446-0.1536-374.17 0.0512-12.4416-0.4096-25.4976 5.1712-31.4368 16.5888-9.0112 15.2576-2.2528 36.8128 13.7728 44.2368ZM723.814 637.594c21.504 9.984 48.1792-10.5472 43.8272-33.8944-2.1504-23.6032-33.4336-36.352-51.456-20.7872-19.0976 13.6704-14.4384 46.6944 7.6288 54.6816ZM64.9216 511.949c255.334 0.0512 510.72 0.0512 766.054 0 0.768-21.2992 0.7168-42.6496 0-63.9488-255.386-0.3072-510.771-0.3072-766.157 0-0.5632 21.3504-0.6144 42.6496 0.1024 63.9488ZM235.776 330.44500000000005c37.0688 3.072 77.9776 10.1888 112.077-9.0624 40.8064-24.4224 38.656-91.4432 0.3072-117.248-22.8864-14.9504-51.456-17.7664-78.1312-15.0016 0-30.464-0.3072-60.9792 0.256-91.4944-12.032-0.3072-24.0128-0.256-36.0448-0.512 0.8192 77.7728-2.1504 155.699 1.536 233.318m33.8944-26.4704c0.512-28.672 0.4608-57.344 0.0512-86.016 15.8208-1.9968 32.512-3.3792 47.4624 3.3792 28.0576 12.0832 33.8432 56.2688 10.0352 75.1616-16.5888 12.288-38.3488 9.9328-57.5488 7.4752ZM449.536 332.79999999999995c15.0528 0.2048 30.1056 0.0512 45.2096-0.7168 18.6368-61.3888 39.4752-122.112 54.8352-184.422 13.312 63.0784 36.864 123.136 55.7568 184.576 14.8992 0.6144 29.7472 0.6656 44.6464 0.6144 5.2224-78.3872 8.9088-156.877 14.592-235.213-11.52-0.3072-22.9888-0.256-34.5088-0.512-3.072 65.2288-8.3456 130.355-7.9872 195.686-21.0944-64.2048-40.2944-129.28-62.5152-193.178-9.0112 0.3584-17.9712 0.6144-26.9824 0.8192-17.664 64.4096-42.4448 127.078-53.8624 193.075-6.7072-65.1264-7.2192-130.867-11.6736-196.25-11.1104 0.0512-22.1696 0-33.28 0 5.5808 78.4896 11.4176 156.979 15.7696 235.52Z"  horiz-adv-x="1024" />

    
    <glyph glyph-name="zidong" unicode="&#58887;" d="M901.12 720.226462A505.816615 505.816615 0 0 1 599.04 895.015385c-25.6 5.139692-51.2-10.279385-51.2-35.977847-5.12-25.718154 10.24-51.416615 35.84-56.556307 199.68-35.977846 348.16-210.766769 348.16-416.393846 0-236.504615-189.44-426.692923-419.84-426.692923h-35.84c-97.28 10.279385-189.44 51.396923-261.12 123.372307-76.8 82.254769-122.88 185.068308-122.88 298.161231 0 138.811077 66.56 267.323077 174.08 344.438154l30.72-51.396923c5.12 0 10.24-5.139692 15.36-5.139693s10.24 5.12 15.36 10.279385L450.56 895.015385 204.8 889.875692c-5.12 0-10.24-5.139692-15.36-10.279384s-5.12-10.279385 0-15.419077l30.72-56.556308c-61.44-41.117538-112.64-97.673846-153.6-164.509538C25.6 565.996308 0 478.621538 0 386.087385 0 247.276308 51.2 118.744615 148.48 21.070769c87.04-87.394462 199.68-138.811077 317.44-149.090461H512c281.6 0 512 231.325538 512 519.227077 0 113.092923-40.96 236.465231-122.88 328.999384zM675.997538 543.271385v-385.654154h-50.09723V183.138462H398.099692v-25.521231h-50.09723V543.271385h102.084923a231.581538 231.581538 0 0 1 21.740307 52.932923l50.097231-7.089231c-4.726154-16.541538-11.342769-31.665231-19.377231-45.843692h173.449846zM398.099692 229.927385h227.800616V291.84H398.099692v-61.912615z m0 107.283692h227.800616v58.131692H398.099692v-58.131692z m0 103.502769h227.800616v55.296H398.099692v-55.296z"  horiz-adv-x="1024" />

    
    <glyph glyph-name="zidonghua" unicode="&#59119;" d="M512 869.052632c-269.473684 0-485.052632-215.578947-485.052632-485.052632s215.578947-485.052632 485.052632-485.052632 485.052632 215.578947 485.052632 485.052632-215.578947 485.052632-485.052632 485.052632z m0-862.31579c-210.189474 0-377.263158 167.073684-377.263158 377.263158s167.073684 377.263158 377.263158 377.263158 377.263158-167.073684 377.263158-377.263158-167.073684-377.263158-377.263158-377.263158zM598.231579 578.021053c-5.389474 16.168421-10.778947 26.947368-16.168421 37.726315-5.389474 10.778947-10.778947 16.168421-16.168421 26.947369s-10.778947 16.168421-21.557895 21.557895c-10.778947 5.389474-21.557895 5.389474-32.336842 5.389473s-21.557895 0-32.336842-5.389473c-10.778947-5.389474-16.168421-10.778947-21.557895-21.557895l-16.168421-32.336842c-5.389474-10.778947-5.389474-21.557895-10.778947-32.336842l-118.568421-307.2c-5.389474-10.778947-5.389474-16.168421-10.778948-26.947369s-5.389474-16.168421-5.389473-21.557895c0-10.778947 5.389474-21.557895 16.168421-26.947368s21.557895-10.778947 32.336842-10.778947c16.168421 0 26.947368 0 32.336842 10.778947s10.778947 26.947368 21.557895 48.505263l21.557894 59.284211h188.631579l21.557895-59.284211c5.389474-5.389474 10.778947 0 16.168421-10.778947s10.778947-16.168421 10.778947-21.557895c0-5.389474 5.389474-5.389474 10.778948-10.778947s16.168421-5.389474 21.557895-5.389474c10.778947 0 26.947368 5.389474 32.336842 10.778947 5.389474 5.389474 10.778947 16.168421 10.778947 26.947369s-5.389474 26.947368-16.168421 48.505263l-118.568421 296.421053zM447.326316 373.221053l64.673684 194.021052 75.452632-194.021052H447.326316z"  horiz-adv-x="1024" />

    
    <glyph glyph-name="xingneng" unicode="&#58988;" d="M512 832C264 832 64 632 64 384s200-448 448-448 448 200 448 448S760 832 512 832z m0-832C299.2 0 128 171.2 128 384S299.2 768 512 768s384-171.2 384-384-171.2-384-384-384zM800 384h-64c0 123.2-100.8 224-224 224s-224-100.8-224-224h-64c0 158.4 129.6 288 288 288s288-129.6 288-288zM512 256c27.2 0 48-20.8 48-48s-20.8-48-48-48-48 20.8-48 48 20.8 48 48 48m0 64c-62.4 0-112-49.6-112-112s49.6-112 112-112 112 49.6 112 112-49.6 112-112 112zM480 504h64v-192h-64z"  horiz-adv-x="1024" />

    
    <glyph glyph-name="anquan" unicode="&#59019;" d="M512-64c-83.2 0-176 51.2-288 153.6-54.4 51.2-89.6 121.6-92.8 198.4-3.2 25.6-3.2 51.2-3.2 80V659.2c0 22.4 12.8 41.6 35.2 48l332.8 118.4c12.8 3.2 25.6 3.2 35.2 0L864 707.2c19.2-6.4 32-25.6 32-48v-291.2c0-28.8 0-54.4-3.2-80-6.4-76.8-38.4-147.2-92.8-198.4-112-102.4-204.8-153.6-288-153.6zM192 652.8v-284.8c0-28.8 0-51.2 3.2-73.6 3.2-60.8 32-115.2 73.6-156.8 96-89.6 179.2-137.6 243.2-137.6s147.2 44.8 243.2 137.6c44.8 41.6 70.4 96 73.6 156.8 0 22.4 3.2 48 3.2 73.6V652.8L512 768 192 652.8z m-6.4-3.2z m-12.8 28.8zM483.2 320l182.4 182.4c12.8 12.8 32 12.8 44.8 0s12.8-32 0-44.8l-204.8-204.8c-12.8-12.8-32-12.8-44.8 0l-112 112c-12.8 12.8-12.8 32 0 44.8s32 12.8 44.8 0l89.6-89.6z"  horiz-adv-x="1024" />

    
    <glyph glyph-name="question" unicode="&#59091;" d="M512-18c-222.0192 0-402 179.9808-402 402S289.9808 786 512 786 914 606.0192 914 384 734.0192-18 512-18z m0 36c202.1352 0 366 163.8648 366 366S714.1352 750 512 750 146 586.1351999999999 146 384 309.8648 18 512 18zM518.8496 624c42.528 0 76.4208-11.2032 102.336-34.9272C645.776 566.6664000000001 658.4 535.6944 658.4 496.1544c0-29.6544-8.64-55.356-25.2528-77.1024-6.6456-7.908-24.588-25.0416-53.8272-50.7432-14.6184-12.5208-24.588-24.384-31.2312-36.2448-8.64-14.496-12.6264-30.312-12.6264-48.108V268.79999999999995h-53.1624v15.156c0 21.7488 3.9864 40.86 11.9616 57.336 9.3024 19.7688 31.2312 44.808 67.116 76.44 10.632 10.5456 18.6072 18.4536 22.596 23.7264 13.2888 16.4736 19.9344 33.6072 19.9344 52.0608 0 26.3592-7.9728 46.788-22.5936 61.2864-15.2832 15.816-37.2144 23.064-65.124 23.064-33.2256 0-57.816-10.5432-73.764-32.2896-14.6184-18.4536-21.9288-43.4952-21.9288-75.7848H368c0 46.128 12.624 83.0328 39.2064 110.712C433.7888 609.5016 471.0032 624 518.8496 624z m-9.5856-403.2c11.4624 0 21.5784-3.3288 29.6712-11.3136 7.4184-7.32 11.4648-16.6392 11.4648-27.9528 0-11.9808-4.0464-21.2976-12.1392-28.62-8.0928-7.32-17.5344-11.3136-28.9968-11.3136-11.4648 0-20.9064 3.9936-28.9992 11.3136-8.0928 7.9872-11.4648 17.304-11.4648 28.62 0 11.3136 3.372 20.6304 11.4648 27.9528 8.0928 7.9848 17.5344 11.3136 28.9992 11.3136z"  horiz-adv-x="1024" />

    
    <glyph glyph-name="huigun" unicode="&#59177;" d="M512 758.99999991C371.37499973 758.99999991 249.49999981 679.3125 183.87500019 566.81250027V712.12499981H137.00000009v-281.24999972h281.24999973V477.75000019H202.62499973C240.12499963 609.00000027 366.68749963 707.43749973 512 707.43749973c178.12500018 0 323.43749973-145.31250037 323.43749973-323.43749973s-145.31250037-323.43749973-323.43749973-323.43749973c-107.81249963 0-201.56249981 51.56250019-262.50000019 131.2500001l-37.4999999-37.50000074C282.31249963 65.25000036999995 390.12500009 9.000000089999958 512 9.000000089999958c206.24999991 0 374.99999991 168.75 374.99999991 374.99999991s-168.75 374.99999991-374.99999991 374.99999991zM512 318.37500036999995V571.50000037H465.12499991v-281.25000055l164.0624999-93.75000019 23.43750046 42.1875z"  horiz-adv-x="1024" />

    
    <glyph glyph-name="Terminal" unicode="&#59060;" d="M225.834667 609.834667a42.666667 42.666667 0 1 0 60.330666 60.330666l256-256a42.666667 42.666667 0 0 0 1.28-59.008l-234.666666-256a42.666667 42.666667 0 1 0-62.890667 57.685334l207.061333 225.877333-227.114666 227.114667zM512 170.666667m42.666667 0l341.333333 0q42.666667 0 42.666667-42.666667l0 0q0-42.666667-42.666667-42.666667l-341.333333 0q-42.666667 0-42.666667 42.666667l0 0q0 42.666667 42.666667 42.666667Z"  horiz-adv-x="1024" />

    
    <glyph glyph-name="zhixiao" unicode="&#58924;" d="M245.8894 173.31080599999996a361.344597 361.344597 0 0 1 45.585011 114.796399 1010.097128 1010.097128 0 0 1 10.840337 171.221747V643.892654a4511.248316 4511.248316 0 0 1 450.846875 19.457017L762.056259 633.052316q-175.669066-13.063997-429.166198-17.233357v-158.157751a910.03247 910.03247 0 0 0-13.063997-177.892725 402.204332 402.204332 0 0 0-47.80867-123.691035l-19.457017 13.063997a25.572079 25.572079 0 0 0-6.670977 4.169361m93.115723 8.616679q125.636737 23.904335 166.774429 62.818368t43.361352 130.084055h27.795738a309.644524 309.644524 0 0 0-13.063997-93.115723q108.403379-47.80867 205.966421-95.339382l-17.511315-27.795739A2104.415342 2104.415342 0 0 1 553.588222 256.69802000000004q-34.744673-67.265687-199.5734-103.956061c-3.057531 5.837105-7.226892 13.619912-13.063997 23.904335 1.389787-1.389787 0 0-2.223659 4.447318m205.96642 422.773179h30.297355v-62.818368h184.285744v-26.127994h-184.007787v-73.658707h147.59537v-179.004554H692.566913v153.98839h-262.391769v-153.98839H400.711662v180.116384h145.371711v73.658706h-177.892725v26.127994h177.892725v62.818369m0 0M533.853248-126.32725200000004a41.971565 41.971565 0 0 0-16.399486 3.335488c-10.562381 4.725276-20.846804 9.450551-30.853269 14.175827a521.170092 521.170092 0 0 1-51.422116 22.23659A566.477145 566.477145 0 0 0 203.917835 62.12785299999996a620.678835 620.678835 0 0 0-133.975458 237.931519 731.58383 731.58383 0 0 0-27.795738 286.296104c4.725276 49.754371 10.840338 100.064658 16.677442 148.7072q3.335489 27.795738 6.39302 55.591476a71.435047 71.435047 0 0 0 4.169361 16.399486l6.39302 20.568846 21.680676-3.335489 46.140925-7.504849c31.965099-5.559148 62.262454-10.562381 92.559808-13.063997h27.795739A389.140335 389.140335 0 0 1 489.380067 879.878472 70.601175 70.601175 0 0 0 530.239802 896a71.15709 71.15709 0 0 0 42.805437-18.345187 380.801614 380.801614 0 0 1 235.429903-83.387215A446.955471 446.955471 0 0 1 928.830688 812.612785h10.006466l27.795738 6.115063 3.613446-27.795739c0-5.28119 1.389787-10.562381 2.223659-15.84357 1.945702-12.78604 3.891403-26.127994 4.725276-39.747906v-10.284423A1482.068763 1482.068763 0 0 0 972.19204 395.676712c-26.405951-160.659367-80.885598-277.957382-171.221748-368.293532a533.678174 533.678174 0 0 0-177.336809-112.850697 401.37046 401.37046 0 0 1-43.361352-22.514548c-9.172594-5.28119-18.623145-10.562381-27.795738-15.565614a43.083394 43.083394 0 0 0-19.734975-4.447318M113.859643 769.529391L109.134368 729.225571c-5.837105-48.364585-11.67421-98.118956-15.843571-147.317413a682.107416 682.107416 0 0 1 25.016164-266.56113c55.591476-179.282512 166.774429-294.912783 333.548859-353.839748a567.866932 567.866932 0 0 0 55.591477-24.460249l25.294121-11.952168 23.070463 12.78604a444.731812 444.731812 0 0 0 48.9205 25.294122 485.31359 485.31359 0 0 1 161.215281 102.010359c83.387215 83.387215 132.585671 190.956722 157.045921 340.775751A1445.378388 1445.378388 0 0 1 928.830688 724.222338v10.006465c0 7.782807-1.389787 15.843571-2.779573 23.904335a487.815206 487.815206 0 0 0-116.742101-14.731741 430.278028 430.278028 0 0 0-266.005215 93.949595 55.591476 55.591476 0 0 1-11.952167 7.782807 53.08986 53.08986 0 0 1-11.674211-6.948935A437.782877 437.782877 0 0 0 264.512544 750.906246H231.991531c-32.521014 2.779574-65.319985 8.338721-97.007127 13.619912l-21.124761 3.613446m0 0"  horiz-adv-x="1024" />

    
    <glyph glyph-name="wendang" unicode="&#59017;" d="M505.152 481.28h-288.64a29.44 29.44 0 0 0-26.24 30.72 29.44 29.44 0 0 0 26.24 32h288.64a29.44 29.44 0 0 0 26.24-32 29.44 29.44 0 0 0-26.24-30.72z m209.92-165.76h-498.56a32.64 32.64 0 0 0 0 64h498.56a32.64 32.64 0 0 0 0-64z m0-165.76h-498.56a32.64 32.64 0 0 0 0 64h498.56a32.64 32.64 0 0 0 0-64zM160.832 896a128 128 0 0 1-128-128v-768a128 128 0 0 1 128-128h640a128 128 0 0 1 128 128l7.04 670.72L716.992 896h-556.16z m512-64l192-192h-160.64a31.36 31.36 0 0 0-31.36 31.36V832z m128-896h-640a64 64 0 0 0-64 64V768a64 64 0 0 0 64 64h448v-192a64 64 0 0 1 64-64h192v-576a64 64 0 0 0-64-64z"  horiz-adv-x="1024" />

    
    <glyph glyph-name="yijiaofu" unicode="&#58915;" d="M782.848 749.568c5.632 0 13.312-2.56 17.92-10.24l163.328-283.136c3.584-6.144 2.56-12.288 2.048-15.36s-3.072-8.704-9.216-12.288L251.392 20.992c-3.072-1.536-6.656-2.56-10.24-2.56-5.632 0-13.824 2.56-17.92 10.24l-163.328 283.136c-3.584 6.144-2.56 12.288-2.048 15.36 1.024 3.072 3.072 8.704 9.216 12.288l705.024 407.04c3.584 2.048 7.168 3.072 10.752 3.072m0 40.96c-10.24 0-20.992-2.56-30.72-8.192L47.104 375.296c-29.184-16.896-39.424-54.784-22.528-83.968l163.328-283.136c11.264-19.456 32.256-30.72 53.248-30.72 10.24 0 20.992 2.56 30.72 8.192l705.024 407.04c29.184 16.896 39.424 54.784 22.528 83.968l-163.328 283.136c-11.264 19.456-32.256 30.72-53.248 30.72zM301.568 157.184c-23.552-13.824-41.472-9.216-54.272 12.288l-56.832 98.304 24.064 13.824 14.848-25.6 110.592 64-28.672 49.152-139.776-80.384-12.288 21.504L321.536 404.48l52.736-91.136L240.64 236.032l27.136-46.592c7.168-13.824 17.92-16.896 31.232-8.192l84.48 48.64c15.36 7.68 20.48 18.432 14.848 32.768-1.536 2.56-3.072 6.656-5.12 12.288-3.072 6.656-5.632 12.288-6.656 15.872 5.632 1.024 13.824 3.072 24.064 6.144 1.536 0 2.56 0.512 3.072 0.512 5.12-12.288 9.216-23.552 12.8-33.28 7.68-20.48-0.512-36.864-23.552-48.64l-101.376-58.368zM380.928 389.12L368.64 410.624 455.68 460.8c-8.192 6.656-15.872 12.8-23.04 17.408l23.552 17.92c3.072-2.048 8.704-5.632 16.384-11.264 4.096-3.584 7.68-6.144 9.728-7.68l-2.56-2.56 81.408 47.104 12.288-21.504L380.928 389.12z m51.2-57.856c-10.24 5.12-18.432 8.704-25.088 11.776 15.872 25.088 28.672 51.712 38.4 79.36l25.6-8.192c-12.8-30.72-25.6-58.368-38.912-82.944z m215.552 14.848c-43.008-12.8-77.824-18.432-104.448-16.384-12.288-24.576-34.816-52.736-68.608-84.48l-22.528 16.384c32.256 27.648 53.76 51.712 64.512 72.192-18.944 5.12-38.912 13.824-60.416 26.624l13.824 20.992c21.504-11.776 39.936-19.456 55.808-22.528 5.632 16.896 6.656 36.864 4.096 59.392l27.136 2.56c1.536-25.6 0-47.104-5.12-65.536 24.064-2.048 55.296 4.608 94.208 20.48-0.512-4.608 0-10.752 0.512-18.432 0.512-4.096 1.024-8.192 1.024-11.264z m-53.248 82.944c-29.184 2.56-58.368 4.608-87.552 5.12l4.096 25.088c16.384 0 38.912-1.024 69.12-2.048 8.192-0.512 14.336-0.512 17.92-0.512l-3.584-27.648zM633.856 440.32c-7.168 8.704-14.848 17.408-22.528 25.6 3.072 38.912 0 77.312-8.704 115.2l26.112 7.68c4.096-17.92 6.656-36.864 8.192-55.808l83.968-145.408-22.016-12.8-60.928 105.984c-0.512-14.336-2.048-27.648-4.096-40.448z m26.112 87.04l-12.288 21.504 84.48 48.64-24.064 41.984 23.04 13.312 24.064-41.984 26.112 15.36 12.288-21.504-26.112-15.36L824.32 491.008c12.288-19.968 8.192-35.328-12.288-46.592-5.632-4.096-16.896-10.752-33.28-20.48-5.12 6.656-10.752 12.8-16.384 18.944 3.072 2.048 8.192 4.608 14.848 8.704 6.144 3.584 10.24 6.144 13.312 7.68 11.776 6.144 14.336 14.336 7.68 24.064l-53.76 92.672-84.48-48.64z m85.504-52.224c-21.504 10.24-41.984 19.456-62.976 27.136l9.728 20.992c22.016-6.656 43.52-14.848 64-23.552l-10.752-24.576z"  horiz-adv-x="1024" />

    
    <glyph glyph-name="goujiandongcha" unicode="&#58900;" d="M512 48.85942899999998V713.142857a36.571429 36.571429 0 0 1-36.571429 36.571429h-109.714285a36.571429 36.571429 0 0 1-36.571429-36.571429v-347.428571H216.722286a36.571429 36.571429 0 0 1-26.88-61.366857l258.706285-280.283429A36.571429 36.571429 0 0 1 512 48.85942899999998zM475.428571-5.961142999999993c-14.774857 0-29.549714 5.924571-40.338285 17.627429l-258.669715 280.246857A54.930286 54.930286 0 0 0 216.722286 384H310.857143V713.142857c0 30.244571 24.612571 54.857143 54.857143 54.857143h109.714285c30.244571 0 54.857143-24.612571 54.857143-54.857143v-664.246857c0-15.250286-6.436571-29.952-17.627428-40.338286a54.966857 54.966857 0 0 0-37.229715-14.518857zM216.722286 347.42857100000003a18.285714 18.285714 0 0 1-13.421715-30.72l258.669715-280.246857a18.358857 18.358857 0 0 1 31.744 12.434286V713.142857a18.285714 18.285714 0 0 1-18.285715 18.285714h-109.714285a18.285714 18.285714 0 0 1-18.285715-18.285714v-365.714286zM664.832 779.849143c24.576 0 43.593143-10.24 57.051429-31.012572 12.288-19.309714 18.432-45.056 18.432-77.531428 0-32.182857-6.144-58.221714-18.432-77.531429-13.458286-20.48-32.475429-31.012571-57.051429-31.012571s-43.593143 10.532571-57.051429 31.012571c-12.288 19.309714-18.432 45.056-18.432 77.531429 0 32.768 6.144 58.514286 18.432 77.531428 13.458286 20.772571 32.475429 31.012571 57.051429 31.012572z m0-26.916572c-17.261714 0-29.257143-9.362286-36.278857-28.379428-5.266286-12.873143-7.606857-30.72-7.606857-53.248 0-22.235429 2.340571-40.082286 7.606857-53.248 7.021714-18.724571 19.017143-28.379429 36.278857-28.379429 16.969143 0 29.257143 9.654857 36.278857 28.379429 4.973714 13.165714 7.606857 31.012571 7.606857 53.248 0 22.528-2.633143 40.374857-7.606857 53.248-7.021714 19.017143-19.309714 28.379429-36.278857 28.379428zM808.594286 505.563429c24.576 0 43.593143-10.24 57.051428-31.012572 12.288-19.309714 18.432-45.056 18.432-77.531428 0-32.182857-6.144-58.221714-18.432-77.531429-13.458286-20.48-32.475429-31.012571-57.051428-31.012571s-43.593143 10.532571-57.051429 31.012571c-12.288 19.309714-18.432 45.056-18.432 77.531429 0 32.768 6.144 58.514286 18.432 77.531428 13.458286 20.772571 32.475429 31.012571 57.051429 31.012572z m0-26.916572c-17.261714 0-29.257143-9.362286-36.278857-28.379428-5.266286-12.873143-7.606857-30.72-7.606858-53.248 0-22.235429 2.340571-40.082286 7.606858-53.248 7.021714-18.724571 19.017143-28.379429 36.278857-28.379429 16.969143 0 29.257143 9.654857 36.278857 28.379429 4.973714 13.165714 7.606857 31.012571 7.606857 53.248 0 22.528-2.633143 40.374857-7.606857 53.248-7.021714 19.017143-19.309714 28.379429-36.278857 28.379428zM664.832 231.27771399999995c24.576 0 43.593143-10.24 57.051429-31.012571 12.288-19.309714 18.432-45.056 18.432-77.531429 0-32.182857-6.144-58.221714-18.432-77.531428-13.458286-20.48-32.475429-31.012571-57.051429-31.012572s-43.593143 10.532571-57.051429 31.012572c-12.288 19.309714-18.432 45.056-18.432 77.531428 0 32.768 6.144 58.514286 18.432 77.531429 13.458286 20.772571 32.475429 31.012571 57.051429 31.012571z m0-26.916571c-17.261714 0-29.257143-9.362286-36.278857-28.379429-5.266286-12.873143-7.606857-30.72-7.606857-53.248 0-22.235429 2.340571-40.082286 7.606857-53.248 7.021714-18.724571 19.017143-28.379429 36.278857-28.379428 16.969143 0 29.257143 9.654857 36.278857 28.379428 4.973714 13.165714 7.606857 31.012571 7.606857 53.248 0 22.528-2.633143 40.374857-7.606857 53.248-7.021714 19.017143-19.309714 28.379429-36.278857 28.379429zM844.873143 775.753143h23.990857V566.857143h-31.890286V737.426286c-12.580571-11.995429-28.672-20.772571-47.981714-26.331429v31.597714c9.362286 2.340571 19.017143 6.436571 29.549714 12.288 10.532571 6.436571 19.309714 13.165714 26.331429 20.772572zM644.937143 501.467429h23.990857V292.57142899999997h-31.890286v170.569142c-12.580571-11.995429-28.672-20.772571-47.981714-26.331428v31.597714c9.362286 2.340571 19.017143 6.436571 29.549714 12.288 10.532571 6.436571 19.309714 13.165714 26.331429 20.772572zM844.873143 227.18171400000006h23.990857V18.285713999999984h-31.890286v170.569143c-12.580571-11.995429-28.672-20.772571-47.981714-26.331428v31.597714c9.362286 2.340571 19.017143 6.436571 29.549714 12.288 10.532571 6.436571 19.309714 13.165714 26.331429 20.772571z"  horiz-adv-x="1060" />

    
    <glyph glyph-name="ceshidongcha" unicode="&#58946;" d="M512.964 383.826m-447.941 0a447.941 447.941 0 1 1 895.882 0 447.941 447.941 0 1 1-895.882 0ZM274.805 294.87800000000004V442.613h-32.067c-10.701 0-16.408 6.872-17.178 20.616 0.769 12.205 6.478 18.699 17.178 19.469h108.796c12.205-0.768 18.699-7.264 19.467-19.469-0.768-12.992-7.264-19.865-19.467-20.616h-32.068v-147.735c-0.768-13.743-8.408-20.616-22.903-20.616-13.743 0-21.009 6.873-21.761 20.615l0.003 0.001z m105.362 1.144v161.48c0 16.785 7.247 25.195 21.759 25.195h73.296c12.973-0.769 19.845-7.264 20.616-19.47-0.768-12.991-7.641-19.864-20.616-20.616h-51.535v-42.373h48.1c12.973-0.769 20.22-7.642 21.758-20.616-1.538-12.991-8.786-19.864-21.758-20.615h-48.1v-44.665h53.823c12.974 0 19.845-6.495 20.616-19.467-0.769-12.991-7.642-19.864-20.616-20.616h-75.586c-13.743 0.753-21.008 8.016-21.758 21.759l0.001 0.004z m200.419 190.11c36.647-2.291 55.722-11.845 57.26-28.63-0.769-13.742-7.264-21.007-19.467-21.758-3.058 0-8.409 1.145-16.033 3.435-9.162 3.041-16.803 4.582-22.904 4.582-15.281-0.769-23.298-6.873-24.048-18.324 0-8.411 11.057-15.657 33.214-21.76 43.518-12.992 65.277-34.753 65.277-65.277-3.058-41.229-28.256-62.987-75.586-65.277-46.578 0.769-70.253 11.057-71.005 30.922 0.753 12.973 7.247 19.845 19.47 20.616 3.81 0 10.682-1.539 20.616-4.581 12.205-4.581 21.761-6.873 28.63-6.873 19.075 0.753 29.006 9.162 29.776 25.195 0 9.162-12.222 17.553-36.647 25.196-40.476 11.451-60.697 30.15-60.697 56.117 3.04 41.228 27.092 63.364 72.152 66.422l-0.008-0.005z m125.973-191.254V442.613h-32.067c-10.701 0-16.408 6.872-17.178 20.616 0.769 12.205 6.477 18.699 17.178 19.469h108.796c12.205-0.768 18.699-7.264 19.467-19.469-0.768-12.992-7.264-19.865-19.467-20.616H751.22v-147.735c-0.768-13.743-8.408-20.616-22.903-20.616-13.742 0-21.005 6.873-21.759 20.615l0.001 0.001z"  horiz-adv-x="1024" />

    
    <glyph glyph-name="tanhao" unicode="&#58923;" d="M960 384c0 247.467-200.533 448-448 448S64 631.467 64 384s200.533-448 448-448 448 200.533 448 448z m-64 0c0-211.2-172.8-384-384-384S128 172.8 128 384s172.8 384 384 384 384-172.8 384-384zM512 288c-17.067 0-32 14.933-32 32V597.333c0 17.067 14.933 32 32 32s32-14.933 32-32V320c0-17.067-14.933-32-32-32zM480 170.667a32 32 0 1 1 64 0 32 32 0 1 1-64 0z"  horiz-adv-x="1024" />

    
    <glyph glyph-name="gongjuxiang" unicode="&#59050;" d="M948 388H76c-6.6 0-12 5.4-12 12v32c0 6.6 5.4 12 12 12h872c6.6 0 12-5.4 12-12v-32c0-6.6-5.4-12-12-12zM829.5 704h-635C122.7 704 64 645.3 64 573.5v-507C64-5.3 122.7-64 194.5-64h635c71.8 0 130.5 58.7 130.5 130.5v507c0 71.8-58.7 130.5-130.5 130.5zM904 72c0-48.4-39.6-88-88-88H208c-48.4 0-88 39.6-88 88V568c0 48.4 39.6 88 88 88h608c48.4 0 88-39.6 88-88v-496zM371.7 660c-1.9 6.6-3 6.6-3 13.8v34.4c0 40.7 33.3 74 74 74h140c40.7 0 74-33.3 74-74v-34.4c0-7.2-1.1-7.2-3-13.8H711c1.2 6.4 1.8 5.9 1.8 12.6v48.8C712.7 782.2 663 832 602.1 832H423.3c-60.8 0-110.6-49.8-110.6-110.6v-48.8c0-6.7 0.6-6.3 1.8-12.6h57.2zM599.2 324.4c4.4-2.8 6.8-5.8 6.8-9 0-13.3-42.1-31-94-31s-94 17.7-94 31c0 3.2 2.4 6.2 6.8 9h-61.9c-0.6-3-1-6-1-9 0-44.2 67.2-80 150-80s150 35.8 150 80c0 3-0.3 6-1 9h-61.7z"  horiz-adv-x="1024" />

    
    <glyph glyph-name="shujudongcha" unicode="&#59024;" d="M35.46160242 336.44786119l-0.00116395 0.00116508h-0.00116394zM772.24381213 670.72512114l62.4353223-48.87710607 23.14967837 164.52886187-178.89742734-15.82975545 49.8574427-58.53959054L453.18621753 456.40285184 269.88076829 576.73274595 2.10687886 380.81565355l33.35355961-44.36662728 237.67453468 171.84878479 194.49199616-128.19237775zM17.73288221 225.68032256000004v-201.30661376h255.40209094l-0.33880974 383.66316203zM561.92206165 258.51926528v92.87698091l-80.26417266-81.11177956-143.24205568 98.87310052v-344.78385835h166.7945802c-47.18189227 48.86429923-75.24256768 90.63687737-75.24256768 90.63687623s51.35705429 76.46856989 131.95421582 143.50868025zM852.64187847 350.5975387V606.28953998L628.93306311 388.78176029v-82.23415979c49.42665387 29.75938105 105.36637326 50.87037895 164.61618404 50.87037895 20.12134741 0 39.85964146-2.43919758 59.09263132-6.82044075zM771.65700779 163.15651413c-23.08797099 0-41.81565667-18.72768569-41.81565668-41.81565667s18.72768569-41.83544946 41.81565668-41.83544946 41.81682062 18.74747847 41.81682062 41.83544946c0 23.08797099-18.72885077 41.81565667-41.81682062 41.81565667zM771.65700779 288.60581319000005c-138.54645362 0-250.87764025-167.26495573-250.87764139-167.26495573s112.35097941-167.26495573 250.87764139-167.26495573c138.5476187 0 250.87880533 167.26495573 250.87880533 167.26495573s-112.33118663 167.26495573-250.87880533 167.26495573z m0-271.79653006c-57.72924131 0-104.53040925 46.80116793-104.53041038 104.55020316 0 57.72924131 46.80116793 104.53040925 104.53041038 104.53041038s104.53157433-46.82096071 104.53157432-104.53041038c0-57.76882802-46.80233301-104.55020317-104.53157432-104.55020316z"  horiz-adv-x="1024" />

    
    <glyph glyph-name="cangku" unicode="&#58899;" d="M335.60064 294.59968h-89.4976v-89.6h89.4976v89.6z m-89.50272-223.8976h89.4976v89.4976h-89.4976v-89.4976z m134.30272 89.6v-89.4976h89.4976v89.4976h-89.4976z m134.2976 0v-89.4976h89.4976v89.4976h-89.4976z m-4.50048 671.49824L67.00032 388.59776l31.69792-31.60064 411.49952 411.49952 411.49952-411.49952 31.69792 31.69792-443.19744 443.10528z m317.9008-805.80096a44.78976 44.78976 0 0 0-44.8-44.8H246.09792a44.78976 44.78976 0 0 0-44.8 44.8V384.1024h-44.8v-358.09792c0-49.39776 40.09984-89.4976 89.4976-89.4976h537.20064c49.39776 0 89.4976 40.09984 89.4976 89.4976V384.1024h-44.8v-358.09792h0.2048zM263.68 144.21504h52.90496v-52.90496H263.68zM396.8 144.21504h52.90496v-52.90496H396.8zM535.04 144.21504h52.91008v-52.90496H535.04zM263.68 277.33504h52.91008v-52.90496H263.68z"  horiz-adv-x="1024" />

    
    <glyph glyph-name="weizhi" unicode="&#58884;" d="M511.6-63.5c-21.8 0-41.8 9.8-55 26.9L222 269.3c-3.5 4-5.9 8-7.4 10.5-41.8 58.6-64.1 127.9-64.1 200.1 0.9 194 163.2 351.7 361.9 351.7 199.1 0 361-157.8 361-351.7-0.8-72.3-23.1-141.1-64.5-199.4-2-3.3-4.3-7.2-7.7-11.1l-234.6-306c-13.2-17.1-33.2-26.9-55-26.9zM273.1 315.4c0.9-1 1.8-2 2.6-3l235.5-307 236.2 307c0.4 0.6 0.9 1.1 1.4 1.7l2.5 4.1c0.3 0.5 0.6 0.9 0.9 1.3 33.6 47 51.7 102.6 52.3 160.8 0 155.6-131.1 282.5-292.2 282.5-160.9 0-292.3-127-293-283 0-57.6 17.8-113 51.6-160.2l2.9-4.6c0.5-0.9-0.1-0.2-0.7 0.4z m477-0.1s-0.1 0 0 0c-0.1 0 0 0 0 0z m0 0.1c0-0.1 0-0.1 0 0 0-0.1 0-0.1 0 0z m0 0M512 318.7c-90.2 0-163.5 73.3-163.5 163.5S421.8 645.7 512 645.7s163.5-73.4 163.5-163.5c0-90.2-73.3-163.5-163.5-163.5z m0 240.9c-42.7 0-77.5-34.7-77.5-77.5 0-42.7 34.7-77.5 77.5-77.5 42.7 0 77.5 34.7 77.5 77.5s-34.8 77.5-77.5 77.5z m0 0"  horiz-adv-x="1024" />

    
    <glyph glyph-name="zhanghu" unicode="&#58922;" d="M981.333333 640a128 128 0 0 1-128 128H170.666667a128 128 0 0 1-128-128v-512a128 128 0 0 1 128-128h682.666666a128 128 0 0 1 128 128v149.333333H640a106.666667 106.666667 0 0 0-106.666667 106.666667 106.666667 106.666667 0 0 0 106.666667 106.666667h341.333333v149.333333zM682.666667 384m-64 0a64 64 0 1 1 128 0 64 64 0 1 1-128 0Z"  horiz-adv-x="1024" />

    
    <glyph glyph-name="dengchu" unicode="&#58927;" d="M901.1776 313.024h-0.32l-3.136 2.944v85.12H473.1456v63.04h424.576V551.936l125.632-115.072v-0.32l-122.176-123.52zM676.2816 835.584H154.4896l200.064-95.36c26.688-12.672 48.256-43.776 48.256-69.504l3.2-565.824a32.64 32.64 0 0 0 7.104 0.832h264V305.024h62.784v-229.44c0-16.768-14.08-30.336-31.488-30.336H413.1136a35.072 35.072 0 0 0-6.848 0.768l0.96-163.968c0-8.576-7.232-11.904-16.128-7.296L39.1616 62.592c-21.632 11.008-39.104 37.184-39.04 58.24L1.2736 857.536A28.352 28.352 0 0 0 1.5936 875.136C3.1296 886.336 10.4256 893.184 20.6016 894.144A32 32 0 0 0 31.4176 896h676.224c17.344 0 31.424-13.568 31.424-30.208a31.04 31.04 0 0 0-0.64-6.08c0.384-1.984 0.64-4.032 0.64-6.144v-289.536h-62.784V835.584z m0 0"  horiz-adv-x="1024" />

    
    <glyph glyph-name="shijian1" unicode="&#58894;" d="M607.085714 566.857143c0 14.628571-14.628571 29.257143-29.257143 29.257143H219.428571c-14.628571 0-29.257143-14.628571-29.257142-29.257143s14.628571-29.257143 29.257142-29.257143h358.4c14.628571-7.314286 29.257143 14.628571 29.257143 29.257143zM212.114286 413.257143c-14.628571 0-29.257143-14.628571-29.257143-29.257143s14.628571-29.257143 29.257143-29.257143h241.371428c14.628571 0 29.257143 14.628571 29.257143 29.257143s-14.628571 29.257143-29.257143 29.257143H212.114286z m182.857143-190.171429H212.114286c-14.628571 0-29.257143-14.628571-29.257143-29.257143s14.628571-29.257143 29.257143-29.257142h182.857143c14.628571 0 29.257143 14.628571 29.257142 29.257142s-14.628571 29.257143-29.257142 29.257143z m-51.2-197.485714H153.6c-29.257143 0-51.2 21.942857-51.2 51.2V691.2c0 29.257143 21.942857 51.2 51.2 51.2h548.571429c29.257143 0 51.2-21.942857 51.2-51.2v-124.342857c0-14.628571 14.628571-29.257143 29.257142-29.257143s29.257143 14.628571 29.257143 29.257143V691.2c0 58.514286-51.2 109.714286-117.028571 109.714286H146.285714C80.457143 800.914286 29.257143 749.714286 29.257143 691.2v-614.4c0-58.514286 51.2-109.714286 117.028571-109.714286h190.171429c14.628571 0 29.257143 14.628571 29.257143 29.257143 7.314286 14.628571-7.314286 29.257143-21.942857 29.257143z m380.342857 95.085714h-29.257143-7.314286v-36.571428h43.885714v29.257143l-7.314285 7.314285c7.314286 0 7.314286 0 0 0z m-36.571429 29.257143h43.885714V303.542857 310.857143h-36.571428-7.314286v-160.914286c0 7.314286 0 7.314286 0 0z m292.571429-51.2L775.314286 457.142857c-21.942857 43.885714-95.085714 43.885714-124.342857 0l-204.8-358.4c-14.628571-21.942857-14.628571-51.2 0-73.142857 14.628571-21.942857 36.571429-36.571429 58.514285-36.571429h409.6c21.942857 0 51.2 14.628571 58.514286 36.571429 14.628571 21.942857 14.628571 51.2 7.314286 73.142857z m-51.2-43.885714s0-7.314286-7.314286-7.314286H512c-7.314286 0-7.314286 0-7.314286 7.314286v7.314286l204.8 358.4c7.314286 7.314286 14.628571 7.314286 14.628572 0l204.8-358.4v-7.314286z"  horiz-adv-x="1024" />

    
    <glyph glyph-name="gengxin" unicode="&#59054;" d="M512-50.176c-65.024 0-128 14.336-186.368 41.984-7.168 3.584-12.8 10.24-13.824 18.432-1.536 8.192 1.024 15.872 7.168 22.016l14.336 14.336c7.168 7.168 18.432 9.216 28.16 5.12 48.128-22.016 98.816-33.28 151.04-33.28 201.216 0 365.568 163.84 365.568 365.568 0 51.712-11.264 102.4-33.792 151.552l-69.12 140.8 196.608-99.84-57.856-28.672c21.504-52.224 32.256-107.52 32.256-163.84 0-239.616-194.56-434.176-434.176-434.176z m-262.656 141.824l-196.608 99.84 57.344 28.16c-21.504 52.224-32.256 107.52-32.256 163.84 0 239.616 194.56 434.176 434.176 434.176 65.024 0 128-14.336 186.368-41.984 7.168-3.584 12.8-10.24 13.824-18.432 1.536-8.192-1.024-15.872-7.168-22.016l-14.336-14.336c-7.168-7.168-18.432-9.216-28.16-5.12-48.128 22.016-98.816 33.28-151.04 33.28-201.728 0-365.568-163.84-365.568-365.568 0-51.712 11.264-102.4 33.792-151.552l69.632-140.288z m272.384 92.16h-9.216c-13.824 0-25.088 11.264-25.088 25.088V481.792c0 3.072-2.56 4.096-3.072 4.608-0.512 0.512-3.072 1.024-5.632-1.024l-141.312-141.312c-5.632-5.632-15.36-5.632-20.992 0l-13.824 13.824c-2.56 2.56-4.608 6.656-4.608 10.752s1.536 7.68 4.608 10.752l191.488 191.488c4.608 4.608 11.264 7.168 17.92 7.168s12.8-2.56 17.92-7.168l191.488-191.488c5.632-5.632 5.632-15.36 0-20.992l-13.824-13.824c-5.632-5.632-15.36-5.632-20.992 0l-141.312 141.312c-2.048 2.048-4.608 1.536-5.632 1.024-0.512-0.512-3.072-1.536-3.072-4.608v-283.136c0-8.704-6.656-15.36-14.848-15.36z"  horiz-adv-x="1024" />

    
    <glyph glyph-name="fuwupeizhi" unicode="&#58888;" d="M963.00904297 203.42040652000003H591.46604089c-8.37768533 0-15.29780148 6.69923555-15.41430992 15.0817754v35.73289719a15.22741097 15.22741097 0 0 0 15.41309628 15.07692089h371.54664297a15.27474252 15.27474252 0 0 0 15.29780148-15.07692089v-35.73289719c-0.11650845-8.38253985-6.92739792-15.1922157-15.29780148-15.0817754z m0-132.00406755H591.46604089c-8.37768533 0-15.29780148 6.69923555-15.41430992 15.07570725V122.23222518a15.22741097 15.22741097 0 0 0 15.41309628 15.0769209h371.54664297a15.27474252 15.27474252 0 0 0 15.29780148-15.0769209v-35.62245688c-0.11650845-8.3764717-6.92739792-15.1922157-15.29780148-15.19221571z m0-131.99799942H591.46604089c-8.37768533 0-15.29780148 6.69923555-15.41430992 15.07570727v35.73896533a15.22741097 15.22741097 0 0 0 15.41309628 15.07692088h371.54664297a15.27474252 15.27474252 0 0 0 15.29780148-15.07692088v-35.6224569a15.4543597 15.4543597 0 0 0-15.29780148-15.1922157zM509.04723911 275.11314962999995v-67.00449185c-108.2120723 0-196.32158341 86.6592237-196.32158341 193.200128 0 106.53483615 87.99785718 193.200128 196.32158341 193.200128 108.21935408 0 196.32886518-86.6592237 196.32886519-193.200128 0-22.56137482-3.90788741-44.89701452-11.72608948-66.00203378H618.1561837a123.58633245 123.58633245 0 0 1 19.20690252 66.00203378c0 69.46209185-57.62556208 126.0791277-128.31706074 126.0791277-70.57984475 0-128.19933867-56.61582222-128.19933866-126.0791277-0.00606815-69.57253215 57.50784-126.19563615 128.19933866-126.19563615z m-16.19467378-268.46458311a16.0441837 16.0441837 0 0 0 11.50520889-4.5790246c3.01829689-3.01829689 4.80597333-7.15434667 4.80597333-11.39598222v-35.17220029a16.15947852 16.15947852 0 0 0-16.19467377-15.96772504H428.97559703c-30.48394903-0.33860267-55.836672 23.44732445-57.51390814 53.82690133l-9.37892978 67.78485571a382.64285867 382.64285867 0 0 0-78.9587437 44.66885214l-64.09663526-25.79448414c-27.2508397-13.84751408-60.53099141-4.2477037-76.1613274 21.99582341L62.45944889 238.59503408c-15.41430992 26.13308682-7.14827852 59.85621333 18.64741926 75.94044681l54.94465422 41.87386311a334.96177778 334.96177778 0 0 0 0 89.67509333l-54.83421392 41.87993126c-25.690112 15.96772503-33.95128889 49.47482548-18.7639277 75.60912593l80.29130903 136.79790459a58.02727348 58.02727348 0 0 0 76.05088711 22.11233186l64.2131437-25.79448415a369.67522608 369.67522608 0 0 0 78.95874371 44.66885215l9.37892978 67.6744154a56.84398459 56.84398459 0 0 0 57.40468147 53.93734163h160.47217778c30.8225517 0 55.9471123-23.56383289 57.40346785-53.82690133l9.37892979-67.7848557a377.90727585 377.90727585 0 0 0 79.06797036-44.66885215l64.20828919 25.68404385c27.2508397 13.62541985 60.41448297 4.12998163 76.05695526-22.00310519l80.07042844-136.6874643a55.99444385 55.99444385 0 0 0-18.54304711-75.93923318l-54.94465422-41.76342282a344.35769837 344.35769837 0 0 0 0-89.67509333l27.69381452-21.11230103h-100.28464356l2.34230518 12.6241754a286.08648533 286.08648533 0 0 1 0 106.76299853l-3.68215228 19.87561243 83.75258073 63.76410074-71.58351645 122.17609483-96.93502578-40.98669986-15.86213925 13.28803081a304.93658075 304.93658075 0 0 1-94.02838282 53.15697778l-19.32341096 6.9261843L579.72053333 795.96657778H438.24408652l-14.29534341-103.186432-19.31734281-6.9261843a309.45856475 309.45856475 0 0 1-94.14489127-53.26741807l-15.74563081-13.06715023-97.71538963 39.30946371-70.80315259-120.38113659 83.75258075-63.76531438-3.68093867-19.99333451a293.82216059 293.82216059 0 0 1-5.13850786-53.27348623 305.19387022 305.19387022 0 0 1 5.02685393-53.37785836l3.571712-19.99333452-83.64699497-63.76410075 71.81046519-122.1760948 96.82337185 40.98669984 15.96772503-13.18244504a305.01910755 305.01910755 0 0 1 94.03323734-53.15697777l19.31734282-6.92132978 14.29655704-103.18521837h54.49561125z"  horiz-adv-x="1024" />

    
    <glyph glyph-name="jiqun1" unicode="&#58882;" d="M1013.12 320a31.36 31.36 0 0 1-3.84 13.44 31.36 31.36 0 0 1-8.96 8.96l-218.88 128V712.96a31.36 31.36 0 0 1 0 26.24 32 32 0 0 1-17.92 14.08L528 885.76a32 32 0 0 1-32 0L261.12 750.72a31.36 31.36 0 0 1-10.24-10.24 31.36 31.36 0 0 1-3.84-13.44v-256l-218.88-128a31.36 31.36 0 0 1-9.6-9.6 31.36 31.36 0 0 1-7.68-13.44v-272.64a32 32 0 0 1 16-27.52l234.88-135.68a32 32 0 0 1 32 0l218.88 128 218.88-128h16a31.36 31.36 0 0 1 21.12 8.32l227.84 131.2a32 32 0 0 1 16 27.52V320z m-266.24-102.4L576 316.16l170.88 98.56 170.88-98.56zM277.12 414.72l85.76-49.28L448 316.16l-169.6-97.92-172.16 97.92z m203.52 153.6V371.2l-28.16 16-143.36 83.2V667.52z m233.6-97.92L544.64 372.48V568.32l169.6 97.92z m-405.12-308.48L480 260.48V64l-170.88-98.56zM512 821.12l171.52-99.2L512 623.36 341.12 722.56zM74.88 260.48l170.88-98.56v-197.12L74.88 64z m469.12 0l172.8-99.84v-197.12L544 64z m236.8-294.4v197.12l168.96 97.28V64z"  horiz-adv-x="1024" />

    
    <glyph glyph-name="fuwu" unicode="&#58881;" d="M948.203 564.565L756.065 372.427c-17.692-17.692-46.354-17.692-64.046 0L499.905 564.565c-17.692 17.667-17.692 46.354 0 64.021L692.02 820.725c17.692 17.692 46.354 17.692 64.046 0l192.138-192.139c17.692-17.667 17.692-46.354 0-64.02z m-223.799 221.25l-189.59-189.589 189.59-189.59 189.59 189.59-189.59 189.59z m-337.348-851.79H112.18c-27.612 0-49.977 22.365-49.977 49.977V258.878c0 27.588 22.365 49.978 49.977 49.978h274.876c27.588 0 49.978-22.39 49.978-49.978v-274.876c0-27.612-22.39-49.977-49.978-49.977z m0 324.853H112.18v-274.876h274.876V258.878z m0 124.944H112.18c-27.612 0-49.977 22.365-49.977 49.977V708.675c0 27.588 22.365 49.978 49.977 49.978h274.876c27.588 0 49.978-22.39 49.978-49.978V433.8c0-27.612-22.39-49.977-49.978-49.977z m0 324.853H112.18V433.8h274.876V708.675z m174.921-399.82h274.876c27.588 0 49.978-22.39 49.978-49.977v-274.876c0-27.612-22.39-49.977-49.978-49.977H561.977c-27.612 0-49.977 22.365-49.977 49.977V258.878c0 27.588 22.365 49.978 49.977 49.978z m0-324.853h274.876V258.878H561.977v-274.876z"  horiz-adv-x="1024" />

    
    <glyph glyph-name="shijian" unicode="&#58917;" d="M512.00239719 863.06514094C247.14951781 863.06514094 32.46742999 648.36387562 32.46742999 383.53017280999995c0-264.84329156 214.68208781-479.53017281 479.5349672-479.53017281 264.85767375 0 479.53017281 214.68208781 479.5301728 479.53017281C991.53257001 648.36387562 776.86007094 863.06514094 512.00239719 863.06514094L512.00239719 863.06514094 512.00239719 863.06514094zM512.00239719-36.988793439999995c-231.37052812 0-419.59369594 189.14843906-419.59369594 420.51896719 0 231.37052812 188.22316781 419.59369594 419.59369594 419.59369594 231.36573375 0 419.58890156-188.22316781 419.58890156-419.59369594C931.59129875 152.16443905999995 743.36813094-36.988793439999995 512.00239719-36.988793439999995L512.00239719-36.988793439999995 512.00239719-36.988793439999995zM541.98022437 395.692935L541.98022437 683.23653187c0 16.55420343-13.39965281 29.98262156-29.97782718 29.98262157-16.56858656 0-29.98262156-13.414035-29.98262156-29.98262157l-1e-8-299.70635812c0-8.471265 3.54767156-16.08437719 9.19997625-21.54970969 0.5225625-0.58009219 0.9156825-1.23209719 1.46701032-1.78821844l148.35021281-148.33583062c11.69772844-11.71211156 30.69215531-11.71211156 42.37070813 0 11.69772844 11.71211156 11.73128813 30.67777312 0 42.37550155L541.98022437 395.692935 541.98022437 395.692935 541.98022437 395.692935zM541.98022437 395.692935"  horiz-adv-x="1024" />

    
    <glyph glyph-name="info" unicode="&#59056;" d="M512 873.24444445a512 512 0 0 1-512-512 512 512 0 0 1 512-512 512 512 0 0 1 512 512 512 512 0 0 1-512 512z m296-807.232a414.528 414.528 0 0 0-295.232-122.368A411.84 411.84 0 0 0 217.6 66.01244444999998 409.344 409.344 0 0 0 94.4 361.24444444999995c0 112 43.2 216.832 122.432 295.168A414.528 414.528 0 0 0 512 778.84444445c112 0 216.768-43.2 295.232-122.432A414.528 414.528 0 0 0 929.536 361.24444444999995a415.744 415.744 0 0 0-121.6-295.232zM556.76 205.91999999999996a67.92 67.92 0 0 1-9.42-8.4c-7.98-8.4-15.96-16.8-24.72-24.24a22.92 22.92 0 0 0-15.96-6.3c-6.54-1.02-11.58 10.56-10.2 18.96 5.88 36.78 11.64 74.64 18.18 111.42 11.64 64.2 23.22 127.26 34.86 190.38 2.88 15.72 3.6 31.5 1.44 46.2-1.44 12.66-5.04 23.16-13.8 27.36-7.2 4.2-14.52 3.18-21-1.02-11.64-8.4-23.28-15.78-34.14-26.28-24.66-25.2-48.6-51.54-72.6-76.8-5.76-6.3-11.58-12.6-17.4-19.98 2.16-6.3 4.38-11.52 7.26-16.8 1.44-3.18 5.82-4.2 7.98-2.1 6.54 7.38 13.8 14.7 21 21 8.76 7.38 17.46 13.68 26.16 18.96 5.82 3.12 13.08-1.08 13.08-7.38 0.72-6.3 0.72-12.6 0-17.88-8.7-53.64-18.12-107.22-26.88-160.86a5996.22 5996.22 0 0 1-18.84-124.08c-2.16-16.8 0.72-33.6 8.7-47.34 7.98-14.7 22.5-21 34.8-13.68 22.56 13.68 42.84 32.64 62.46 51.6 14.52 13.62 29.04 28.32 44.28 43.08-2.16 6.3-3.6 11.52-5.82 16.8-2.88 8.4-5.82 10.5-9.42 7.38z m-5.1 477a27.6 27.6 0 0 1-18-0.96c-14.76-6-20.1-17.64-21.66-31.2 0-7.08 1.56-12.6 5.82-17.64 5.82-7.02 13.74-9.6 22.74-9.06a31.5 31.5 0 0 1 20.04 8.58c10.62 10.08 14.28 21.6 9 35.22a23.4 23.4 0 0 1-18 15.12z"  horiz-adv-x="1024" />

    
    <glyph glyph-name="zhuangtai" unicode="&#58921;" d="M118.75448453 318.48186463c18.06968301-88.79496912 62.6100846-168.67937243 128.7620259-230.97255405a39.66879517 39.66879517 0 0 1 32.99519147-10.38944636 39.73714678 39.73714678 0 0 1 28.65175666 19.42428787l51.66139771 89.47227154a39.7682157 39.7682157 0 0 1-4.97102696 46.56609508 259.87907584 259.87907584 0 0 0-57.51478196 104.44749027 39.74957435 39.74957435 0 0 1-38.29554897 29.13021801H157.68383943a39.66258139 39.66258139 0 0 1-30.76444311-14.6086055 39.62529868 39.62529868 0 0 1-8.16491179-33.06975686zM644.42815829 134.55386699999997a39.69365029 39.69365029 0 0 1-42.90617648 18.98932299 255.93332319 255.93332319 0 0 0-129.20320454 5.13258535 39.78685706 39.78685706 0 0 1-46.00685455-18.14424842l-50.71690258-87.89397049a39.74336057 39.74336057 0 0 1-2.94533347-33.35559092 39.59422976 39.59422976 0 0 1 23.5999505-23.7552951c48.04497559-17.74656626 98.7929471-26.75033885 150.77746157-26.75033884 42.98074188 0 85.41467079 6.20756992 126.09009891 18.47357895a39.84278111 39.84278111 0 0 1 25.47651319 23.40110943 39.72471922 39.72471922 0 0 1-2.54765132 34.51756848l-51.61790123 89.38527857zM827.03883378 741.5721832300001a39.68743651 39.68743651 0 0 1-25.43923048 9.23368258c-2.30531376 0-4.654124-0.24233757-6.95943775-0.64001972a39.730933 39.730933 0 0 1-27.42764127-19.26272948l-50.8287507-87.9623221a39.81171219 39.81171219 0 0 1 7.28255451-48.92111911 255.65370292 255.65370292 0 0 0 72.04260825-119.16794387 39.7682157 39.7682157 0 0 1 38.33283167-29.21721098h102.37208652a39.75578814 39.75578814 0 0 1 30.72716041 14.56510901 39.59422976 39.59422976 0 0 1 8.19598071 33.03868795c-19.53613597 96.8107501-72.19795285 185.009196-148.29816187 248.33386572zM698.59371084 801.15615517a39.76200192 39.76200192 0 0 1-25.47651319 23.40732321 436.667436 436.667436 0 0 1-126.09009891 18.51086165c-51.98451446 0-102.73248597-8.99755881-150.77746157-26.74412506a39.78685706 39.78685706 0 0 1-20.65461703-57.16681007l50.71690258-87.88154293a39.78685706 39.78685706 0 0 1 46.00685455-18.14424841 255.75933725 255.75933725 0 0 0 74.71453525 11.10403147c18.18774491 0 36.53704818-1.98841078 54.48866929-5.93416343a39.74336057 39.74336057 0 0 1 42.90617648 18.94582651l51.62411501 89.39770615a39.69365029 39.69365029 0 0 1 2.54143754 34.50514091zM936.41385453 366.16644077h-102.37208652a39.72471922 39.72471922 0 0 1-38.33283167-29.2109972 255.77176481 255.77176481 0 0 0-72.04260825-119.17415765 39.730933 39.730933 0 0 1-7.28255451-48.87140882l50.8287507-87.99960481a39.68743651 39.68743651 0 0 1 27.42764127-19.26894328c2.30531376-0.39768215 4.654124-0.59652323 6.95943775-0.59652323a39.65636759 39.65636759 0 0 1 25.43923048 9.1901861c76.10020901 63.36816621 128.76202591 151.5293294 148.29816187 248.32765194a39.58180219 39.58180219 0 0 1-8.19598071 33.03868795 39.64394003 39.64394003 0 0 1-30.72716041 14.565109zM126.91318253 460.24933983a39.68122273 39.68122273 0 0 1 30.76444312-14.60860548h102.37208651a39.75578814 39.75578814 0 0 1 38.29554897 29.13021799 259.90393098 259.90393098 0 0 0 57.51478196 104.48477298 39.70607787 39.70607787 0 0 1 4.97102697 46.52881238L309.16967234 715.2568092500001a39.89249138 39.89249138 0 0 1-28.65175666 19.46157056 39.69365029 39.69365029 0 0 1-5.77260506 0.39768215c-10.0290469 0-19.82197002-3.82147698-27.22258641-10.82441121C181.36456912 662.0046829 136.82416754 582.12649339 118.75448453 493.32531049a39.66879517 39.66879517 0 0 1 8.158698-33.07597066z"  horiz-adv-x="1024" />

    
    <glyph glyph-name="test" unicode="&#59045;" d="M395.7 716v-184.7L210.5 52h603L628.3 531.3V716H395.7z m300.6 2v-174L879 71.10000000000002c12.7-33-3.7-70-36.6-82.8-7.4-2.8-15.2-4.3-23.1-4.3H204.7c-35.3 0-64 28.7-64 64 0 7.9 1.5 15.7 4.3 23.1L327.7 544V718H264c-4.4 0-8 3.6-8 8v52c0 4.4 3.6 8 8 8h496c4.4 0 8-3.6 8-8v-52c0-4.4-3.6-8-8-8h-63.7z m-379-389.7L210.5 52h603L666.4 432.7C633 441 598.9 432.8 564 408c-52.3-37.2-81.2-79.7-130.9-88.1-33.1-5.4-71.7-2.7-115.8 8.4z"  horiz-adv-x="1024" />

    
    </font>
</defs>
</svg>
