<?xml version="1.0" standalone="no"?><!DOCTYPE svg PUBLIC "-//W3C//DTD SVG 1.1//EN" "http://www.w3.org/Graphics/SVG/1.1/DTD/svg11.dtd"><svg t="1597732937862" class="icon" viewBox="0 0 1024 1024" version="1.1" xmlns="http://www.w3.org/2000/svg" p-id="11045" xmlns:xlink="http://www.w3.org/1999/xlink" width="64" height="64"><defs><style type="text/css"></style></defs><path d="M896 192v768H128V64h640V0H128a64 64 0 0 0-64 64v896a64 64 0 0 0 64 64h768a64 64 0 0 0 64-64V192z" fill="#1989fa" p-id="11046"></path><path d="M800 0v92.8A67.2 67.2 0 0 0 867.2 160H960z" fill="#1989fa" p-id="11047"></path><path d="M790.4 489.056a80.736 80.736 0 0 0-59.744-5.408 79.456 79.456 0 0 0-32.288-50.592l-6.4-5.056-5.408 6.08a66.944 66.944 0 0 0-12.64 48.16 61.76 61.76 0 0 0 12.064 32.352 93.824 93.824 0 0 1-17.376 7.648 116.192 116.192 0 0 1-35.776 5.824H294.848l-0.736 7.552a141.344 141.344 0 0 0 11.872 73.6l4.608 9.152 0.512 0.864A181.728 181.728 0 0 0 467.2 698.88a255.424 255.424 0 0 0 251.776-164.128 75.2 75.2 0 0 0 74.624-34.688l3.712-7.04-7.072-3.968z m-397.088 136.48a26.4 26.4 0 1 1 27.168-26.4 26.816 26.816 0 0 1-27.168 26.4z" fill="#1989fa" p-id="11048"></path><path d="M320.064 464h48V512h-48zM384.064 464h48V512h-48zM384.064 400h48V448h-48zM448.064 400h48V448h-48zM448.064 464h48V512h-48zM512.064 464h48V512h-48zM576.064 464h48V512h-48zM512.064 400h48V448h-48zM512.064 336h48V384h-48z" fill="#1989fa" p-id="11049"></path></svg>