<?xml version="1.0" standalone="no"?><!DOCTYPE svg PUBLIC "-//W3C//DTD SVG 1.1//EN" "http://www.w3.org/Graphics/SVG/1.1/DTD/svg11.dtd"><svg t="1575427058843" class="icon" viewBox="0 0 1803 1024" version="1.1" xmlns="http://www.w3.org/2000/svg" p-id="5967" xmlns:xlink="http://www.w3.org/1999/xlink" width="112.6875" height="64"><defs><style type="text/css"></style></defs><path d="M1042.73135 323.238214h161.583764v165.259336h81.78146a352.572099 352.572099 0 0 0 112.246289-18.872645 285.210188 285.210188 0 0 0 54.63878-24.315317 202.015048 202.015048 0 0 1-37.886657-104.471043c-4.665148-50.397736 5.513357-116.063229 39.583074-155.504936l17.034859-19.650169 20.215642 16.257334c50.963208 40.926072 93.868434 98.180162 101.431628 163.421551 61.353765-18.09512 133.451508-14.136812 187.524816 17.458963l22.194795 12.793815-11.66287 22.760268c-45.803272 89.344654-141.368123 116.982122-234.953821 112.104922-139.954442 348.543108-444.602747 513.519707-813.997653 513.519707-190.846966 0-365.931387-71.320218-465.595914-240.325809l-1.625733-2.756679-14.560917-29.545937a468.84738 468.84738 0 0 1-37.321184-237.781184l2.332574-24.386001h138.18734V323.238214h161.654449V161.654449h323.238214V0h193.957065z" fill="#364548" p-id="5968"></path><path d="M1566.358878 384.379927c10.814661-84.255401-52.164837-150.344999-91.253124-181.799407-45.096431 52.094153-52.094153 188.585076 18.589908 246.051219-39.441706 35.342031-122.566163 66.796438-207.599088 66.796438H250.221651a436.332712 436.332712 0 0 0 42.97591 240.325809l11.733554 21.770691a408.341824 408.341824 0 0 0 24.456685 36.685028q63.615655 4.028992 117.759647 2.827363c70.684062-1.555049 128.220888-9.895769 171.832953-25.022158a12.440395 12.440395 0 0 1 8.199352 23.537792c-5.866777 2.049838-11.874922 3.887623-18.165804 5.725409a542.217436 542.217436 0 0 1-118.749224 19.296749c2.827362 0-2.968731 0.424104-2.96873 0.424105l-5.301305 0.424104c-18.731276 1.060261-38.946918 1.272313-59.586664 1.272313-22.548216 0-44.813695-0.424104-69.694485-1.696417l-0.636156 0.424104C438.453307 938.54297 573.318497 996.645268 742.394772 996.645268c358.014772 0 661.6735-158.685718 796.185269-515.004072 95.352799 9.825085 187.030027-14.560917 228.733624-95.918272-66.372334-38.381445-151.829364-26.153103-201.025471-1.413681" fill="#22A0C8" p-id="5969"></path><path d="M1566.358878 384.379927c10.814661-84.255401-52.164837-150.344999-91.253124-181.799407-45.096431 52.094153-52.094153 188.585076 18.589908 246.051219-39.441706 35.342031-122.566163 66.796438-207.599088 66.796438H311.575417c-4.241044 135.996134 46.227376 239.265548 135.57203 301.679575 70.684062-1.555049 128.220888-9.895769 171.832953-25.022158a12.440395 12.440395 0 0 1 8.199352 23.537792c-5.866777 2.049838-11.874922 3.887623-18.165804 5.725409a569.501484 569.501484 0 0 1-121.930006 20.144958l-1.20163-1.060261c121.859322 62.48471 298.498792 62.272658 501.079313-15.550493 227.10789-87.224132 438.241182-253.473045 585.900186-443.613171l-6.502933 3.110099" fill="#37B1D9" p-id="5970"></path><path d="M252.200805 623.362739a413.855181 413.855181 0 0 0 40.996756 132.95672l11.733554 21.205218a408.341824 408.341824 0 0 0 24.456685 36.685028q63.615655 4.028992 117.759647 2.827363c70.684062-1.555049 128.220888-9.895769 171.832953-25.022158a12.440395 12.440395 0 0 1 8.199352 23.537792c-5.866777 2.049838-11.874922 3.887623-18.165804 5.725409A569.289432 569.289432 0 0 1 487.295994 841.140333h-6.149514c-18.731276 1.060261-38.664182 1.696417-59.374611 1.696417-22.548216 0-45.661904-0.424104-70.684062-1.696417 86.305239 97.049217 222.089321 155.504935 391.236281 155.504935 306.486091 0 573.177055-116.345965 728.045834-373.353213z" fill="#1B81A5" p-id="5971"></path><path d="M320.905713 623.362739C339.495621 706.840616 383.249055 772.506109 447.147447 817.107752c70.684062-1.555049 128.220888-9.895769 171.832953-25.022158a12.440395 12.440395 0 0 1 8.199352 23.537792c-5.866777 2.049838-11.874922 3.887623-18.165804 5.725409a577.842203 577.842203 0 0 1-122.566163 19.791538c121.788638 62.48471 297.93332 61.636502 500.51384-16.18665a1323.559053 1323.559053 0 0 0 346.351902-201.52026z" fill="#1D91B4" p-id="5972"></path><path d="M390.81225 350.168841h140.09581v140.09581H390.81225z m11.66287 11.733554h11.097397v116.699386h-11.097397z m20.781114 0h11.521502v116.699386h-11.521502V361.902395z m21.205218 0h11.521502v116.699386h-11.521502z m21.205219 0h11.450818v116.699386h-11.380134z m21.205218 0h11.521502v116.699386h-11.450818z m21.205219 0h11.097397v116.699386h-11.026713z m44.318906-173.317319h140.09581v140.025126H552.396014V188.585076z m11.662871 11.66287h11.026713v116.699386h-10.956029z m20.781114 0h11.450818v116.699386h-11.380134V200.247946z m21.205218 0h11.521502v116.699386h-11.450818z m21.205219 0h11.521502v116.699386h-11.450818z m21.205218 0h11.450818v116.699386h-11.30945z m21.205219 0h11.026713v116.699386h-10.885345z" fill="#23A3C2" p-id="5973"></path><path d="M552.466698 350.168841H692.915929v140.09581H552.466698V350.168841z m11.662871 11.733554h11.026713v116.699386h-11.026713z m20.781114 0h11.450818v116.699386h-11.450818V361.902395z m21.205218 0h11.521502v116.699386h-11.521502z m21.205219 0h11.521502v116.699386h-11.521502z m21.205218 0h11.450818v116.699386h-11.380134z m21.205219 0h11.026713v116.699386h-10.956029z" fill="#34BBDE" p-id="5974"></path><path d="M714.121147 350.168841h140.09581v140.09581H714.121147z m11.66287 11.733554h11.097398v116.699386h-11.097398z m20.781115 0h11.521502v116.699386h-11.521502z m21.205218 0h11.450818v116.699386h-11.450818z m21.205218 0h11.521503v116.699386h-11.521503z m21.205219 0h11.521502v116.699386h-11.521502z m21.205218 0h11.097398v116.699386h-11.097398z" fill="#23A3C2" p-id="5975"></path><path d="M714.121147 188.585076h140.09581v140.025126H714.121147z m11.66287 11.66287h11.097398v116.699386h-11.097398z m20.781115 0h11.521502v116.699386h-11.521502z m21.205218 0h11.450818v116.699386h-11.450818z m21.205218 0h11.521503v116.699386h-11.521503z m21.205219 0h11.521502v116.699386h-11.521502z m21.205218 0h11.097398v116.699386h-11.097398z m44.318907 149.920895h140.09581v140.09581h-140.09581z m11.66287 11.733554h11.026714v116.699386h-11.026714z m20.781114 0h11.521502v116.699386h-11.521502z m21.205219 0h11.521502v116.699386h-11.521502z m21.205218 0h11.450818v116.699386h-11.450818z m21.205219 0h11.521502v116.699386h-11.521502z m21.205218 0H1003.9258v116.699386h-11.097398z" fill="#34BBDE" p-id="5976"></path><path d="M875.704912 188.585076h140.09581v140.025126h-140.09581z m11.66287 11.66287h11.026714v116.699386h-11.026714z m20.781114 0h11.521502v116.699386h-11.521502z m21.205219 0h11.521502v116.699386h-11.521502z m21.205218 0h11.450818v116.699386h-11.450818z m21.205219 0h11.521502v116.699386h-11.521502z m21.205218 0H1003.9258v116.699386h-11.097398z" fill="#23A3C2" p-id="5977"></path><path d="M875.704912 26.930627h140.09581v140.09581h-140.09581z m11.66287 11.662871h11.026714V155.504935h-11.026714V38.593498z m20.781114 0h11.521502V155.504935h-11.521502V38.593498z m21.205219 0h11.521502V155.504935h-11.521502V38.593498z m21.205218 0h11.450818V155.504935h-11.450818V38.593498z m21.205219 0h11.521502V155.504935h-11.521502V38.593498z m21.205218 0H1003.9258V155.504935h-11.097398V38.593498z" fill="#34BBDE" p-id="5978"></path><path d="M1037.359361 350.168841h140.025126v140.09581h-140.025126z m11.66287 11.733554h11.026714v116.699386h-11.026714V361.902395z m20.781114 0h11.450818v116.699386h-11.450818V361.902395z m21.205219 0H1102.883486v116.699386h-11.521502z m21.205218 0H1124.088704v116.699386h-11.521502z m21.205219 0H1145.293923v116.699386h-11.521502z m21.205218 0h11.026714v116.699386h-11.026714z" fill="#23A3C2" p-id="5979"></path><path d="M683.727001 717.372541a38.664182 38.664182 0 0 1 1.060261 77.328363h-1.060261a38.664182 38.664182 0 0 1 0-77.328363" fill="#D3ECEC" p-id="5980"></path><path d="M683.727001 728.045834a27.84952 27.84952 0 0 1 10.037137 1.90847 11.30945 11.30945 0 1 0 15.550493 15.197073A27.637468 27.637468 0 1 1 683.727001 728.045834M0.212125 637.287499h1797.707738c-39.15897-9.895769-123.838476-23.32574-109.913715-74.642369-71.17885 82.346932-242.799752 57.819562-286.129082 16.964175-48.20653 69.977221-329.034307 43.400014-348.613791-11.097398-60.505557 70.684062-247.889004 70.684062-308.394561 0-19.579485 54.709464-300.407262 81.286671-348.825844 11.097398-43.32933 40.643335-214.950231 65.170705-286.129081-17.176227 14.136812 51.316629-70.684062 64.7466-109.913716 74.642369" fill="#364548" p-id="5981"></path><path d="M786.501626 995.867743c-95.706219-45.379168-148.436529-107.157037-177.487678-174.518948A593.180645 593.180645 0 0 1 480.863744 840.716228q-28.273625 1.625733-59.021191 1.625734-35.695451 0-75.207842-2.120522c87.789604 87.71892 195.724166 155.504935 395.830745 156.494512 14.772969 0 29.40457 0 44.03617-0.848209" fill="#BDD9D7" p-id="5982"></path><path d="M644.568031 883.55077a335.607924 335.607924 0 0 1-35.342031-62.201975A588.515497 588.515497 0 0 1 480.863744 840.716228c34.140402 18.519224 82.912404 35.342031 163.492235 42.410437" fill="#D3ECEC" p-id="5983"></path></svg>