<?xml version="1.0" standalone="no"?><!DOCTYPE svg PUBLIC "-//W3C//DTD SVG 1.1//EN" "http://www.w3.org/Graphics/SVG/1.1/DTD/svg11.dtd"><svg t="1597732477388" class="icon" viewBox="0 0 1194 1024" version="1.1" xmlns="http://www.w3.org/2000/svg" p-id="8424" xmlns:xlink="http://www.w3.org/1999/xlink" width="74.625" height="64"><defs><style type="text/css"></style></defs><path d="M85.333333 0h1024a85.333333 85.333333 0 0 1 85.333334 85.333333v804.608a85.333333 85.333333 0 0 1-85.333334 85.333334H85.333333a85.333333 85.333333 0 0 1-85.333333-85.333334V85.333333a85.333333 85.333333 0 0 1 85.333333-85.333333z" fill="#CCDFFA" p-id="8425"></path><path d="M313.514667 438.869333l-55.04 54.954667 106.922666 106.154667L258.56 706.901333l55.04 55.04L475.306667 599.893333 313.514667 438.869333z m286.293333 256h256v85.333334h-256v-85.333334z" fill="#005DE8" p-id="8426"></path><path d="M85.333333 0h1024a85.333333 85.333333 0 0 1 85.333334 85.333333v158.464H0V85.333333a85.333333 85.333333 0 0 1 85.333333-85.333333z" fill="#005DE8" p-id="8427"></path></svg>