<?xml version="1.0" standalone="no"?><!DOCTYPE svg PUBLIC "-//W3C//DTD SVG 1.1//EN" "http://www.w3.org/Graphics/SVG/1.1/DTD/svg11.dtd"><svg t="1597731488652" class="icon" viewBox="0 0 1024 1024" version="1.1" xmlns="http://www.w3.org/2000/svg" p-id="4990" xmlns:xlink="http://www.w3.org/1999/xlink" width="64" height="64"><defs><style type="text/css"></style></defs><path d="M512 36.571429a36.571429 36.571429 0 0 1 36.571429 36.571428v73.142857l-0.073143 1.645715c59.684571 5.376 116.553143 23.881143 167.131428 53.577142a30.098286 30.098286 0 0 1 2.413715-5.266285l36.571428-63.341715a36.571429 36.571429 0 0 1 63.341714 36.571429l-36.571428 63.341714a36.498286 36.498286 0 0 1-8.228572 9.801143c10.093714 8.557714 19.748571 17.700571 29.001143 27.318857a36.571429 36.571429 0 0 1-52.736 50.688A328.045714 328.045714 0 0 0 512 219.428571a328.045714 328.045714 0 0 0-237.238857 101.010286A36.571429 36.571429 0 0 1 221.988571 269.714286c9.216-9.545143 18.834286-18.614857 28.818286-27.172572a35.291429 35.291429 0 0 1-8.228571-9.728l-36.571429-63.341714a36.571429 36.571429 0 0 1 63.341714-36.571429l36.571429 63.341715c0.987429 1.718857 1.828571 3.510857 2.56 5.302857a399.286857 399.286857 0 0 1 166.985143-53.613714A12.873143 12.873143 0 0 1 475.428571 146.285714V73.142857a36.571429 36.571429 0 0 1 36.571429-36.571428zM512 987.428571a36.571429 36.571429 0 0 0 36.571429-36.571428v-73.142857l-0.073143-1.645715a400.420571 400.420571 0 0 0 167.131428-53.577142c0.585143 1.792 1.426286 3.547429 2.413715 5.266285l36.571428 63.341715a36.571429 36.571429 0 0 0 63.341714-36.571429l-36.571428-63.341714a36.498286 36.498286 0 0 0-8.228572-9.801143c10.093714-8.557714 19.748571-17.700571 29.001143-27.318857a36.571429 36.571429 0 0 0-52.736-50.688A328.045714 328.045714 0 0 1 512 804.571429a328.045714 328.045714 0 0 1-237.238857-101.010286 36.571429 36.571429 0 0 0-52.736 50.724571c9.216 9.545143 18.834286 18.614857 28.818286 27.172572a35.291429 35.291429 0 0 0-8.228572 9.728l-36.571428 63.341714a36.571429 36.571429 0 0 0 63.341714 36.571429l36.571428-63.341715c0.987429-1.718857 1.828571-3.510857 2.56-5.302857 50.432 29.732571 107.300571 48.237714 166.985143 53.613714A12.873143 12.873143 0 0 0 475.428571 877.714286v73.142857a36.571429 36.571429 0 0 0 36.571429 36.571428z" fill="#444444" p-id="4991"></path><path d="M212.114286 365.714286a29.257143 29.257143 0 0 1 29.257143 29.257143v234.057142a29.257143 29.257143 0 1 1-58.514286 0l-0.036572-95.122285h-87.771428L95.085714 629.028571a29.257143 29.257143 0 1 1-58.514285 0v-234.057142a29.257143 29.257143 0 1 1 58.514285 0l-0.036571 80.420571h87.771428L182.857143 394.971429a29.257143 29.257143 0 0 1 29.257143-29.257143z" fill="#444444" p-id="4992"></path><path d="M446.171429 365.714286a29.257143 29.257143 0 1 1 0 58.514285l-95.122286-0.036571v51.2L446.171429 475.428571a29.257143 29.257143 0 1 1 0 58.514286l-95.122286-0.036571V599.771429H446.171429a29.257143 29.257143 0 1 1 0 58.514285H321.828571a29.257143 29.257143 0 0 1-29.257142-29.257143v-234.057142a29.257143 29.257143 0 0 1 29.257142-29.257143h124.342858zM541.257143 658.285714a29.257143 29.257143 0 0 1-29.257143-29.257143v-234.057142a29.257143 29.257143 0 1 1 58.514286 0l-0.036572 204.8H665.6a29.257143 29.257143 0 1 1 0 58.514285h-124.342857z" fill="#FF6A00" p-id="4993"></path><path d="M770.157714 465.993143l66.084572 66.596571a29.257143 29.257143 0 0 0 42.678857-1.243428l52.150857-59.026286V629.028571a29.257143 29.257143 0 1 0 58.514286 0v-234.057142c0-26.953143-33.353143-39.570286-51.2-19.382858l-82.651429 93.622858-94.061714-94.829715a29.257143 29.257143 0 0 0-50.029714 20.589715v234.057142a29.257143 29.257143 0 1 0 58.514285 0v-163.035428z" fill="#444444" p-id="4994"></path></svg>