<?xml version="1.0" standalone="no"?><!DOCTYPE svg PUBLIC "-//W3C//DTD SVG 1.1//EN" "http://www.w3.org/Graphics/SVG/1.1/DTD/svg11.dtd"><svg t="1597732831433" class="icon" viewBox="0 0 1024 1024" version="1.1" xmlns="http://www.w3.org/2000/svg" p-id="10831" xmlns:xlink="http://www.w3.org/1999/xlink" width="64" height="64"><defs><style type="text/css"></style></defs><path d="M341.333 78.77H858.69q52.512 0 52.512 52.512v641.812q0 52.513-52.512 52.513H341.333q-52.512 0-52.512-52.513V131.282q0-52.513 52.512-52.513z" fill="#FFFFFF" p-id="10832"></path><path d="M328.1 242.53h-63.015V105.026a84.02 84.02 0 0 1 84.02-84.02h517.357a84.02 84.02 0 0 1 84.02 84.02v641.811a84.02 84.02 0 0 1-84.02 84.02H721.29v-63.015h145.172a21.005 21.005 0 0 0 21.005-21.005V105.026a21.005 21.005 0 0 0-21.005-21.005H349.105a21.005 21.005 0 0 0-21.005 21.005V242.53z" fill="#6E85FF" p-id="10833"></path><path d="M157.538 236.308h517.357q52.513 0 52.513 52.513v641.811q0 52.513-52.513 52.513H157.538q-52.512 0-52.512-52.513V288.821q0-52.513 52.512-52.513z" fill="#FFFFFF" p-id="10834"></path><path d="M157.538 275.587a21.005 21.005 0 0 0-21.005 21.005V938.43a21.005 21.005 0 0 0 21.005 21.005h517.357A21.005 21.005 0 0 0 695.9 938.43V296.592a21.005 21.005 0 0 0-21.005-21.005H157.538z m0-63.015h517.357a84.02 84.02 0 0 1 84.02 84.02V938.43a84.02 84.02 0 0 1-84.02 84.02H157.538a84.02 84.02 0 0 1-84.02-84.02V296.592a84.02 84.02 0 0 1 84.02-84.02z" fill="#6E85FF" p-id="10835"></path><path d="M416.217 399.675l155.595 150.607h-311.19z" fill="#92E6FF" p-id="10836"></path><path d="M353.963 524.157h124.481v155.595H353.963z m0 186.71h124.481v62.227H353.963z m0 93.367h124.481v62.228H353.963z" fill="#92E6FF" p-id="10837"></path></svg>