<?xml version="1.0" standalone="no"?><!DOCTYPE svg PUBLIC "-//W3C//DTD SVG 1.1//EN" "http://www.w3.org/Graphics/SVG/1.1/DTD/svg11.dtd"><svg t="1597732679302" class="icon" viewBox="0 0 1260 1024" version="1.1" xmlns="http://www.w3.org/2000/svg" p-id="10388" xmlns:xlink="http://www.w3.org/1999/xlink" width="78.75" height="64"><defs><style type="text/css"></style></defs><path d="M1260.781243 121.537957q-60.899797 86.432464-127.971143 134.388939v32.027414q0 281.644247-199.952025 508.852664T396.76441 1024q-217.650981 0-396.76441-115.227895c12.743248 2.139265 33.04318 3.078079 60.776674 3.078079q179.282723 0 323.198317-111.949741-83.200481-3.078079-150.410341-52.835229-67.194469-49.510904-92.727136-126.262809 31.950462 6.433186 48.033426 6.433185a264.714812 264.714812 0 0 0 70.3495-9.588216q-89.633666-16.067573-148.717396-88.125408T51.188457 364.736996v-6.294672q63.931705 35.151665 115.243286 35.167055-111.965131-76.782686-112.088255-217.60481 0-73.581483 32.027415-127.971143 208.031983 252.864207 534.446892 268.793267c-4.29392-25.594229-6.433186-44.878395-6.433185-57.621643q0-108.733148 75.135913-183.946013T873.60505 0q115.166334 0 188.732427 79.922327 89.633666-19.099481 163.276711-60.761284-28.918554 92.850259-112.088254 140.822124a621.371849 621.371849 0 0 0 147.255309-38.47599z m0 0" fill="#ffd700" p-id="10389"></path><path d="M620.98709 317.411528q-326.276396-16.175306-534.154476-268.777877-31.965853 54.451221-32.027414 127.955753 0 140.914466 112.088255 217.6202-51.250019 0-115.243286-35.182445v6.310062q0 92.850259 59.268415 164.78497t148.763568 88.125408a264.714812 264.714812 0 0 1-70.3495 9.588217q-16.067573 0-48.033426-6.433186 25.532667 76.782686 92.665574 126.324371t150.487293 52.85062l-4.078455 3.078079 2.170046-0.600225c342.282408-97.359645 250.093936-446.106019 238.443406-485.643947z" fill="#ffd700" p-id="10390"></path></svg>