<?xml version="1.0" standalone="no"?><!DOCTYPE svg PUBLIC "-//W3C//DTD SVG 1.1//EN" "http://www.w3.org/Graphics/SVG/1.1/DTD/svg11.dtd"><svg t="1597928397196" class="icon" viewBox="0 0 1024 1024" version="1.1" xmlns="http://www.w3.org/2000/svg" p-id="9641" xmlns:xlink="http://www.w3.org/1999/xlink" width="64" height="64"><defs><style type="text/css"></style></defs><path d="M912.896 685.568h-146.432c-31.744-4.096-60.416-21.504-78.848-48.128L509.952 301.056C459.264 213.504 367.104 158.208 266.24 155.648H111.104C65.536 158.72 28.672 195.072 25.6 241.152c-3.072 50.688 34.816 94.208 85.504 97.28h157.184c32.256 3.584 60.928 20.992 78.848 48.128l177.664 336.384c50.176 87.04 141.312 141.824 241.664 145.408h145.92c46.08-3.072 82.432-39.424 85.504-85.504 3.584-50.176-34.816-94.208-84.992-97.28z m-7.68 137.216c-21.504 0-39.424-17.408-39.424-39.424s17.408-39.424 39.424-39.424c21.504 0 39.424 17.408 39.424 39.424s-17.408 39.424-39.424 39.424z" fill="#13227a" p-id="9642"></path><path d="M997.376 241.152c-3.072-46.08-39.424-82.432-85.504-85.504h-145.408c-100.352 3.584-191.488 58.368-241.664 145.408l-177.664 336.384c-17.92 26.624-46.592 44.032-78.848 48.128H111.104c-50.688 3.072-88.576 47.104-85.504 97.28 3.072 46.08 39.424 82.432 85.504 85.504H266.24c100.864-3.072 193.024-57.856 243.712-145.408l177.152-336.384c17.92-26.624 46.592-44.032 78.848-48.128h146.432c50.176-3.072 88.576-47.104 84.992-97.28zM906.24 288.256c-21.504 0-39.424-17.408-39.424-39.424 0-21.504 17.408-39.424 39.424-39.424 21.504 0 39.424 17.408 39.424 39.424 0 21.504-17.408 39.424-39.424 39.424z" fill="#13227a" p-id="9643"></path></svg>