<?xml version="1.0" standalone="no"?><!DOCTYPE svg PUBLIC "-//W3C//DTD SVG 1.1//EN" "http://www.w3.org/Graphics/SVG/1.1/DTD/svg11.dtd"><svg t="1597732566367" class="icon" viewBox="0 0 1024 1024" version="1.1" xmlns="http://www.w3.org/2000/svg" p-id="9849" xmlns:xlink="http://www.w3.org/1999/xlink" width="64" height="64"><defs><style type="text/css"></style></defs><path d="M607.97985215 703.66891287h185.10336934c37.70616007 0 68.55598518 30.84982511 68.5559852 68.5559852v30.8498251c0 37.70616007-30.84982511 68.55598518-68.5559852 68.55598519H234.34715534c-37.70616007 0-68.55598518-30.84982511-68.55598517-68.55598519v-30.8498251c0-37.70616007 30.84982511-68.55598518 68.55598517-68.5559852h185.10336933l37.7061601-212.52576339c-51.41735712-20.56753201-89.12351717-71.98488912-89.12351721-133.68601224 0-78.83975118 65.12855415-143.96830533 143.96830534-143.96830533s143.96830533 65.12855415 143.96830533 143.96830533c0 58.27369209-37.70616007 109.69104918-89.12351718 133.68601224l41.1335911 212.52576339z" fill="#FFE255" p-id="9850"></path><path d="M793.0817486 895.62714429H234.34568244c-47.98992607 0-85.69608615-37.70616007-85.69608616-85.69608616v-30.8498251c0-47.98992607 37.70616007-85.69608615 85.69608616-85.69608616h171.3921723l30.84982512-188.53080035c-51.41735712-27.42239408-85.69608615-82.26865513-85.69608616-143.96830534 0-89.12351717 71.98488912-161.1084063 161.1084063-161.10840631s161.1084063 71.98488912 161.1084063 161.10840631c0 61.70112311-34.27872903 116.54591125-85.69608616 143.96830534l30.84982512 188.53080035h171.3921723c47.98992607 0 85.69608615 37.70616007 85.69608616 85.69608616v30.8498251c6.85633497 44.56249504-34.27872903 85.69608615-82.26865512 85.69608616zM234.34568244 720.80754095c-27.42239408 0-51.41735712 23.99496305-51.41735711 51.41735712v30.8498251c0 27.42239408 23.99496305 51.41735712 51.41735711 51.41735712h558.73606616c27.42239408 0 51.41735712-23.99496305 51.41735712-51.41735712v-30.8498251c0-27.42239408-23.99496305-51.41735712-51.41735712-51.41735712H607.97837925c-6.85633497 0-17.13862807-6.85633497-17.13862807-13.71119704l-37.70616008-215.95319443c0-6.85633497 3.42743104-17.13862807 10.28376602-17.13862808 47.98992607-20.56753201 78.83975118-65.12855415 78.83975117-116.54591126 0-71.98488912-58.27369209-126.82967726-126.82967725-126.82967725s-126.82967726 58.27369209-126.82967726 126.82967725c0 51.41735712 30.84982511 95.97985215 78.83975118 116.54591126 6.85633497 3.42743104 10.28376601 10.28376601 10.28376601 17.13862808l-37.70616009 212.52576339c0 6.85633497-6.85633497 13.71119703-17.13862805 13.71119705h-188.53080039z" fill="#555555" p-id="9851"></path><path d="M926.76776082 974.46689547H104.08857414c-10.28376601 0-17.13862807-6.85633497-17.13862807-17.13862807v-61.70112311c0-10.28376601 6.85633497-17.13862807 17.13862807-17.13862807H926.76776082c10.28376601 0 17.13862807 6.85633497 17.13862808 17.13862807V957.3282674c0 10.28376601-6.85633497 17.13862807-17.13862808 17.13862807z" fill="#31D5A1" p-id="9852"></path><path d="M354.31902474 991.60699644h-54.84478815c-10.28376601 0-17.13862807-6.85633497-17.13862807-17.13862808s6.85633497-17.13862807 17.13862807-17.13862806h54.84478815c10.28376601 0 17.13862807 6.85633497 17.13862806 17.13862806s-6.85633497 17.13862807-17.13862806 17.13862808z" fill="#555555" p-id="9853"></path><path d="M926.76776082 991.60699644H443.44401482c-10.28376601 0-17.13862807-6.85633497-17.13862808-17.13862808s6.85633497-17.13862807 17.13862808-17.13862806H926.76776082V895.62861718H104.08857414v61.70112312h123.40224623c10.28376601 0 17.13862807 6.85633497 17.13862807 17.13862806s-10.28376601 17.13862807-17.13862807 17.13862808h-123.40224623c-20.56753201 0-34.27872903-13.71119703-34.27872904-34.27872904v-61.70112311c0-20.56753201 13.71119703-34.27872903 34.27872904-34.27872904H926.76776082c20.56753201 0 34.27872903 13.71119703 34.27872906 34.27872904V957.3282674c0 17.13862807-17.13862807 34.27872903-34.27872906 34.27872904z" fill="#555555" p-id="9854"></path><path d="M751.94815748 772.22489807h-137.11344325c-10.28376601 0-17.13862807-6.85633497-17.13862808-17.13862809s6.85633497-17.13862807 17.13862808-17.13862806h137.11344325c10.28376601 0 17.13862807 6.85633497 17.13862807 17.13862806s-10.28376601 17.13862807-17.13862807 17.13862809z" fill="#FFFFFF" p-id="9855"></path><path d="M909.62913275 460.29185147c-3.42743104 0-10.28376601 0-13.71119704-3.42743103-6.85633497-6.85633497-6.85633497-17.13862807 0-23.99496304l95.97985216-95.97985215c6.85633497-6.85633497 17.13862807-6.85633497 23.99496303 0s6.85633497 17.13862807 0 23.99496302l-92.55094822 95.97985217c-3.42743104 3.42743104-6.85633497 3.42743104-13.71119703 3.42743103z" fill="#6EE5D9" p-id="9856"></path><path d="M1005.60751201 460.29185147c-3.42743104 0-10.28376601 0-13.71119703-3.42743103l-95.97985216-95.97985217c-6.85633497-6.85633497-6.85633497-17.13862807 0-23.99496302s17.13862807-6.85633497 23.99496304 0l95.97985216 95.97985215c6.85633497 6.85633497 6.85633497 17.13862807 0 23.99496304 0 3.42743104-6.85633497 3.42743104-10.28376601 3.42743103z" fill="#6EE5D9" p-id="9857"></path><path d="M21.81991902 621.40025776c-6.85633497 0-10.28376601-3.42743104-13.71119704-6.85633494-6.85633497-6.85633497-6.85633497-20.56753201 0-27.42239409l95.97985216-95.97985216c6.85633497-6.85633497 20.56753201-6.85633497 27.42239407 0s6.85633497 20.56753201 0 27.42239406l-95.97985215 95.97985219c-3.42743104 6.85633497-10.28376601 6.85633497-13.71119704 6.85633494z" fill="#FFEC40" p-id="9858"></path><path d="M117.79977119 621.40025776c-6.85633497 0-10.28376601-3.42743104-13.71119705-6.85633494l-95.97985216-95.97985219c-10.28376601-6.85633497-10.28376601-17.13862807 0-27.42239406s20.56753201-6.85633497 27.42239408 0l95.97985215 95.97985216c6.85633497 6.85633497 6.85633497 20.56753201 0 27.42239409-3.42743104 6.85633497-10.28376601 6.85633497-13.71119702 6.85633494z" fill="#FFEC40" p-id="9859"></path><path d="M282.33560852 48.95299458l23.99496303 92.55094821c3.42743104 10.28376601 17.13862807 13.71119703 23.99496304 6.85633497l65.12855416-65.12855413c6.85633497-6.85633497 3.42743104-20.56753201-6.85633497-23.99496305l-89.12351719-27.42239407c-10.28376601-3.42743104-20.56753201 6.85633497-17.13862807 17.13862807z" fill="#64BFF2" p-id="9860"></path></svg>