<?xml version="1.0" standalone="no"?><!DOCTYPE svg PUBLIC "-//W3C//DTD SVG 1.1//EN" "http://www.w3.org/Graphics/SVG/1.1/DTD/svg11.dtd"><svg t="1597732330015" class="icon" viewBox="0 0 1024 1024" version="1.1" xmlns="http://www.w3.org/2000/svg" p-id="5236" xmlns:xlink="http://www.w3.org/1999/xlink" width="64" height="64"><defs><style type="text/css"></style></defs><path d="M848.457143 506.148571c-7.314286-34.133333-56.07619-58.514286-114.590476-58.514285H290.133333c-58.514286 0-107.27619 24.380952-114.590476 58.514285L48.761905 815.786667v99.961904c0 17.066667 12.190476 34.133333 34.133333 46.32381 21.942857 12.190476 51.2 19.504762 82.895238 19.504762h694.857143c31.695238 0 60.952381-7.314286 82.895238-19.504762 21.942857-12.190476 34.133333-29.257143 34.133333-46.32381v-99.961904l-129.219047-309.638096z" fill="#108EE9" p-id="5237"></path><path d="M926.47619 876.739048c0 31.695238-26.819048 56.07619-58.514285 56.07619H156.038095c-31.695238 0-58.514286-24.380952-58.514285-56.07619v-39.009524c0-41.447619 31.695238-73.142857 73.142857-73.142857h682.666666c41.447619 0 73.142857 31.695238 73.142857 73.142857v39.009524z" fill="#49A9EE" p-id="5238"></path><path d="M195.047619 869.424762h390.095238c14.628571 0 24.380952-9.752381 24.380953-24.380952v-7.314286c0-14.628571-9.752381-24.380952-24.380953-24.380953H195.047619c-14.628571 0-24.380952 9.752381-24.380952 24.380953v7.314286c0 12.190476 9.752381 24.380952 24.380952 24.380952zM707.047619 869.424762h7.314286c14.628571 0 24.380952-9.752381 24.380952-24.380952v-7.314286c0-14.628571-9.752381-24.380952-24.380952-24.380953H707.047619c-14.628571 0-24.380952 9.752381-24.380952 24.380953v7.314286c0 12.190476 9.752381 24.380952 24.380952 24.380952zM860.647619 840.167619c0 14.628571-12.190476 26.819048-26.819048 26.819048-14.628571 0-26.819048-12.190476-26.819047-26.819048 0-14.628571 12.190476-26.819048 26.819047-26.819048 14.628571 0 26.819048 12.190476 26.819048 26.819048z" fill="#FFFFFF" p-id="5239"></path><path d="M848.457143 286.72c-7.314286-34.133333-56.07619-58.514286-114.590476-58.514286H290.133333c-58.514286 0-107.27619 24.380952-114.590476 58.514286L48.761905 596.358095v99.961905c0 17.066667 12.190476 34.133333 34.133333 46.32381 21.942857 12.190476 51.2 19.504762 82.895238 19.504761h694.857143c31.695238 0 60.952381-7.314286 82.895238-19.504761 21.942857-12.190476 34.133333-29.257143 34.133333-46.32381v-99.961905l-129.219047-309.638095z" fill="#108EE9" p-id="5240"></path><path d="M926.47619 657.310476c0 31.695238-26.819048 56.07619-58.514285 56.076191H156.038095c-31.695238 0-58.514286-24.380952-58.514285-56.076191v-39.009524c0-41.447619 31.695238-73.142857 73.142857-73.142857h682.666666c41.447619 0 73.142857 31.695238 73.142857 73.142857v39.009524z" fill="#49A9EE" p-id="5241"></path><path d="M195.047619 649.99619h390.095238c14.628571 0 24.380952-9.752381 24.380953-24.380952v-7.314286c0-14.628571-9.752381-24.380952-24.380953-24.380952H195.047619c-14.628571 0-24.380952 9.752381-24.380952 24.380952v7.314286c0 12.190476 9.752381 24.380952 24.380952 24.380952zM707.047619 649.99619h7.314286c14.628571 0 24.380952-9.752381 24.380952-24.380952v-7.314286c0-14.628571-9.752381-24.380952-24.380952-24.380952H707.047619c-14.628571 0-24.380952 9.752381-24.380952 24.380952v7.314286c0 12.190476 9.752381 24.380952 24.380952 24.380952zM860.647619 620.739048c0 14.628571-12.190476 26.819048-26.819048 26.819047-14.628571 0-26.819048-12.190476-26.819047-26.819047 0-14.628571 12.190476-26.819048 26.819047-26.819048 14.628571 0 26.819048 12.190476 26.819048 26.819048z" fill="#FFFFFF" p-id="5242"></path><path d="M848.457143 116.053333c-7.314286-34.133333-56.07619-58.514286-114.590476-58.514285H290.133333c-58.514286 0-107.27619 24.380952-114.590476 58.514285L48.761905 376.929524v99.961905c0 17.066667 12.190476 34.133333 34.133333 46.323809 21.942857 12.190476 51.2 19.504762 82.895238 19.504762h694.857143c31.695238 0 60.952381-7.314286 82.895238-19.504762 21.942857-12.190476 34.133333-29.257143 34.133333-46.323809v-99.961905l-129.219047-260.876191z" fill="#108EE9" p-id="5243"></path><path d="M926.47619 437.881905c0 31.695238-26.819048 56.07619-58.514285 56.07619H156.038095c-31.695238 0-58.514286-24.380952-58.514285-56.07619v-39.009524c0-41.447619 31.695238-73.142857 73.142857-73.142857h682.666666c41.447619 0 73.142857 31.695238 73.142857 73.142857v39.009524z" fill="#49A9EE" p-id="5244"></path><path d="M195.047619 430.567619h390.095238c14.628571 0 24.380952-9.752381 24.380953-24.380952v-7.314286c0-14.628571-9.752381-24.380952-24.380953-24.380952H195.047619c-14.628571 0-24.380952 9.752381-24.380952 24.380952v7.314286c0 12.190476 9.752381 24.380952 24.380952 24.380952zM707.047619 430.567619h7.314286c14.628571 0 24.380952-9.752381 24.380952-24.380952v-7.314286c0-14.628571-9.752381-24.380952-24.380952-24.380952H707.047619c-14.628571 0-24.380952 9.752381-24.380952 24.380952v7.314286c0 12.190476 9.752381 24.380952 24.380952 24.380952zM860.647619 401.310476c0 14.628571-12.190476 26.819048-26.819048 26.819048-14.628571 0-26.819048-12.190476-26.819047-26.819048 0-14.628571 12.190476-26.819048 26.819047-26.819047 14.628571 0 26.819048 12.190476 26.819048 26.819047z" fill="#FFFFFF" p-id="5245"></path><path d="M512 106.300952l121.904762 136.533334H390.095238z" fill="#FFBF00" p-id="5246"></path></svg>