<svg id="b7d8d657-bdb0-4cab-bef3-dbc27e5f057f" data-name="Layer 1" xmlns="http://www.w3.org/2000/svg" width="1011.66744" height="692.79302" viewBox="0 0 1011.66744 692.79302"><title>environmental_study</title><path d="M1051.34427,667.2931c-4.36676,0-8.55719,2.12251-12.4624,5.9791-10.62165-38.27736-27.0647-62.87563-45.5376-62.87563s-34.916,24.59827-45.5376,62.87563c-3.90521-3.85659-8.09564-5.9791-12.4624-5.9791-20.98682,0-38,48.39956-38,108.10341h192C1089.34427,715.69266,1072.33108,667.2931,1051.34427,667.2931Z" transform="translate(-94.16628 -103.60349)" fill="#d0cde1"/><path d="M483.34373,606.12065a21.13606,21.13606,0,0,0-12.4624,4.38468c-10.62164-28.07008-27.0647-46.10882-45.5376-46.10882s-34.916,18.03874-45.5376,46.10882a21.13606,21.13606,0,0,0-12.4624-4.38468c-20.98682,0-38,35.493-38,79.27586h192C521.34373,641.61367,504.33055,606.12065,483.34373,606.12065Z" transform="translate(-94.16628 -103.60349)" fill="#d0cde1"/><path d="M1105.83372,796.39651H95.85374c.91-82.06,226.66-148.5,504.99-148.5S1104.92381,714.33651,1105.83372,796.39651Z" transform="translate(-94.16628 -103.60349)" fill="#3f3d56"/><circle cx="129.17745" cy="240.97047" r="129.17745" fill="#d0cde1"/><path d="M227.51075,714.39651h-7.29228V359.60736a122.11809,122.11809,0,0,1,3.64613-29.61793v0a122.1176,122.1176,0,0,1,3.64614,29.61793Z" transform="translate(-94.16628 -103.60349)" fill="#3f3d56"/><path d="M224.27419,454.43239l-3.8411-6.19865,53.956-33.4348a22.97361,22.97361,0,0,1,12.47721-3.44231h0a22.97361,22.97361,0,0,1-8.63612,9.641Z" transform="translate(-94.16628 -103.60349)" fill="#3f3d56"/><path d="M221.73239,420.73644l3.8411-6.19864L188.44264,391.529a13.81615,13.81615,0,0,0-9.86988-1.82663h0a13.81618,13.81618,0,0,0,6.02878,8.02526Z" transform="translate(-94.16628 -103.60349)" fill="#3f3d56"/><path d="M221.73239,562.41494l3.8411-6.19865-37.13085-23.00883a13.81615,13.81615,0,0,0-9.86988-1.82663h0a13.81617,13.81617,0,0,0,6.02878,8.02527Z" transform="translate(-94.16628 -103.60349)" fill="#3f3d56"/><circle cx="814.17745" cy="242.79302" r="124" fill="#d0cde1"/><path d="M904.34373,701.39651h7V360.82737a117.22326,117.22326,0,0,0-3.5-28.43085h0a117.22326,117.22326,0,0,0-3.5,28.43085Z" transform="translate(-94.16628 -103.60349)" fill="#3f3d56"/><path d="M907.45056,451.85179l3.68716-5.9502-51.7934-32.09473a22.053,22.053,0,0,0-11.97713-3.30435h0a22.0529,22.0529,0,0,0,8.29,9.25454Z" transform="translate(-94.16628 -103.60349)" fill="#3f3d56"/><path d="M909.89049,419.50638l-3.68715-5.9502L941.846,391.46955a13.26236,13.26236,0,0,1,9.47429-1.75342h0a13.26238,13.26238,0,0,1-5.78714,7.70361Z" transform="translate(-94.16628 -103.60349)" fill="#3f3d56"/><path d="M909.89049,555.50638l-3.68715-5.9502L941.846,527.46955a13.26236,13.26236,0,0,1,9.47429-1.75342h0a13.26238,13.26238,0,0,1-5.78714,7.70361Z" transform="translate(-94.16628 -103.60349)" fill="#3f3d56"/><path d="M242.4479,783.94824a8.0728,8.0728,0,0,0-3.24542.6885c-2.76605-4.4077-7.0481-7.24023-11.85875-7.24023s-9.0927,2.83253-11.85875,7.24023a8.0728,8.0728,0,0,0-3.24542-.6885c-5.46531,0-9.89583,5.57328-9.89583,12.44827h50C252.34373,789.52152,247.91321,783.94824,242.4479,783.94824Z" transform="translate(-94.16628 -103.60349)" fill="#d0cde1"/><path d="M552.4479,775.431a5.45088,5.45088,0,0,0-3.24542,1.15959c-2.76605-7.42349-7.0481-12.19407-11.85875-12.19407s-9.0927,4.77058-11.85875,12.19407a5.45088,5.45088,0,0,0-3.24542-1.15959c-5.46531,0-9.89583,9.38659-9.89583,20.96552h50C562.34373,784.81758,557.91321,775.431,552.4479,775.431Z" transform="translate(-94.16628 -103.60349)" fill="#d0cde1"/><path d="M983.4479,775.431a5.45088,5.45088,0,0,0-3.24542,1.15959c-2.76605-7.42349-7.0481-12.19407-11.85875-12.19407s-9.0927,4.77058-11.85875,12.19407a5.45088,5.45088,0,0,0-3.24542-1.15959c-5.46531,0-9.89583,9.38659-9.89583,20.96552h50C993.34373,784.81758,988.91321,775.431,983.4479,775.431Z" transform="translate(-94.16628 -103.60349)" fill="#1689fa"/><polygon points="621.362 482.069 619.774 489.614 617.788 497.159 611.435 586.905 633.276 588.494 643.203 490.408 641.615 485.246 621.362 482.069" fill="#2f2e41"/><path d="M696.86463,678.19837l-9.13344,13.89872s-25.41479,20.64952-7.14791,21.84083S705.601,701.62763,705.601,701.62763s6.35369-1.98553,7.14791-3.97106-1.58843-19.4582-1.58843-19.4582Z" transform="translate(-94.16628 -103.60349)" fill="#2f2e41"/><path d="M707.18939,688.92024s-9.13344,23.03215-7.94212,27.00321,3.17685,3.97107,2.77974,7.545-1.58842,11.91318,13.50161,12.31029,7.94212-19.85531,7.94212-19.85531l-1.98553-27.00321Z" transform="translate(-94.16628 -103.60349)" fill="#2f2e41"/><path d="M679.392,518.56172s-5.55948,9.53054-4.76527,15.48714S686.937,603.93953,686.937,603.93953l9.13344,77.8328,20.25241-1.58843-7.94212-71.8762,1.98553-57.18328,3.574,42.09325,23.42926.79421,13.89872-59.963s-10.32476-16.67846-12.31029-17.86978S679.392,518.56172,679.392,518.56172Z" transform="translate(-94.16628 -103.60349)" fill="#2f2e41"/><circle cx="612.82456" cy="277.36096" r="17.07556" fill="#ffb8b8"/><polygon points="607.861 288.281 610.243 310.916 636.452 306.945 622.157 280.339 607.861 288.281" fill="#ffb8b8"/><path d="M728.63312,403.79805s-13.50161,9.92765-26.60611,4.36817l-19.8553,50.43247v63.13988s29.783,8.73633,46.46141-1.58843c0,0,11.91318-2.38263,13.89871-1.98553s-7.14791-107.61575-7.14791-107.61575Z" transform="translate(-94.16628 -103.60349)" fill="#d0cde1"/><path d="M716.32283,406.18069l9.13344,13.1045a15.80706,15.80706,0,0,1,1.58843,10.72186c-1.19132,6.3537-2.38264,89.34888,8.73633,92.52573s18.26688,2.77974,18.26688,2.77974-9.92765-47.65273-6.3537-55.992l11.119-50.03537-29.38585-16.67846s-1.83735-7.545-4.88974-3.3754A28.22941,28.22941,0,0,1,716.32283,406.18069Z" transform="translate(-94.16628 -103.60349)" fill="#575a89"/><path d="M689.71672,480.04242,703.281,403.79805,689.71672,410.946s-15.48714,6.3537-18.664,13.89872-15.88424,43.68167-15.88424,43.68167,3.17685,21.84083,15.09,12.70739,9.13344-13.5016,9.13344-13.5016-10.32476,42.09324-8.73633,43.28456,2.38263,12.31029,2.38263,12.31029l12.31029-2.38264Z" transform="translate(-94.16628 -103.60349)" fill="#575a89"/><path d="M674.22958,437.55207l5.16238-7.545s11.67555-23.42926,20.1336-15.48713-15.76543,26.209-15.76543,26.209Z" transform="translate(-94.16628 -103.60349)" fill="#ffb8b8"/><polygon points="649.954 416.15 646.777 420.226 654.719 430.445 658.293 423.297 649.954 416.15" fill="#ffb8b8"/><path d="M700.14486,366.81971c-1.75072.01763-3.28421,1.10238-4.72307,2.09988s-3.06982,1.99257-4.80958,1.79622a5.18371,5.18371,0,0,1-3.771-2.87972,15.31547,15.31547,0,0,1-1.32357-4.733l1.981.69838-1.60482-1.82379,17.05779-5.18253c5.1611-1.56806,10.99426-3.07915,15.7223-.48275a15.49441,15.49441,0,0,1,5.71162,6.22584,32.45691,32.45691,0,0,1-.45346,31.95824c-2.6161-.22267-4.32145-2.96271-4.74568-5.55377s-.011-5.27506-.53481-7.84783-2.48665-5.2081-5.111-5.12722l-1.38185,2.94641c.8843-1.88552-4.36753-6.49-5.61993-7.34581a17.07428,17.07428,0,0,1-3.05976-2.22959C702.39467,368.20467,702.12192,366.79979,700.14486,366.81971Z" transform="translate(-94.16628 -103.60349)" fill="#2f2e41"/><path d="M675.818,433.1839l9.53054,5.9566L675.818,478.85111s-15.09,18.664-20.64952,0c-4.65354-15.6226,12.95134-37.088,18.81251-43.669C675.122,433.901,675.818,433.1839,675.818,433.1839Z" transform="translate(-94.16628 -103.60349)" fill="#575a89"/><path d="M749.67974,418.491h9.13344s7.94213,15.48714,8.73634,23.82636.79421,41.299.79421,41.299l-15.48714,46.06431-11.91318-8.73634,9.92765-27.40032s-1.19132-5.95659,0-8.73633-3.574-17.07556-4.36816-17.86978S749.67974,418.491,749.67974,418.491Z" transform="translate(-94.16628 -103.60349)" fill="#575a89"/><rect x="533.90574" y="224.30867" width="107.45571" height="9.57526" transform="translate(1081.10091 354.58911) rotate(-180)" fill="#3f3d56"/><rect x="533.90574" y="259.58248" width="107.45571" height="9.57526" transform="translate(1081.10091 425.13673) rotate(-180)" fill="#3f3d56"/><rect x="533.90574" y="291.18194" width="107.45571" height="9.57526" transform="translate(1081.10091 488.33565) rotate(-180)" fill="#3f3d56"/><polygon points="265.286 217.735 317.992 164.032 377.574 164.032 377.574 162.032 317.157 162.032 316.863 162.329 263.863 216.329 265.286 217.735" fill="#3f3d56"/><circle cx="405.93539" cy="128.43229" r="11.75794" fill="#1689fa"/><circle cx="405.93539" cy="163.70611" r="11.75794" fill="#1689fa"/><circle cx="405.93539" cy="195.30557" r="11.75794" fill="#1689fa"/><path d="M493.48783,229.0963a12.49281,12.49281,0,1,1,12.49281,12.49281A12.50678,12.50678,0,0,1,493.48783,229.0963Zm1.46974,0a11.02307,11.02307,0,1,0,11.02307-11.02307A11.03559,11.03559,0,0,0,494.95757,229.0963Z" transform="translate(-94.16628 -103.60349)" fill="#3f3d56"/><path d="M493.48783,264.37011a12.49281,12.49281,0,1,1,12.49281,12.49281A12.50678,12.50678,0,0,1,493.48783,264.37011Zm1.46974,0a11.02307,11.02307,0,1,0,11.02307-11.02306A11.03558,11.03558,0,0,0,494.95757,264.37011Z" transform="translate(-94.16628 -103.60349)" fill="#3f3d56"/><path d="M493.48783,295.96957a12.49281,12.49281,0,1,1,12.49281,12.49281A12.50678,12.50678,0,0,1,493.48783,295.96957Zm1.46974,0a11.02307,11.02307,0,1,0,11.02307-11.02307A11.03558,11.03558,0,0,0,494.95757,295.96957Z" transform="translate(-94.16628 -103.60349)" fill="#3f3d56"/><rect x="536.28376" y="7.70518" width="107.45571" height="9.57526" fill="#3f3d56"/><rect x="536.28376" y="42.97899" width="107.45571" height="9.57526" fill="#3f3d56"/><rect x="536.28376" y="74.57845" width="107.45571" height="9.57526" fill="#3f3d56"/><polygon points="808.193 114.735 765.487 51.032 705.905 51.032 705.905 49.032 766.322 49.032 766.616 49.329 809.616 113.329 808.193 114.735" fill="#3f3d56"/><circle cx="677.54353" cy="15.43229" r="11.75794" fill="#1689fa"/><circle cx="677.54353" cy="50.70611" r="11.75794" fill="#1689fa"/><circle cx="677.54353" cy="82.30557" r="11.75794" fill="#1689fa"/><path d="M765.83084,128.58911a12.49281,12.49281,0,1,1,12.49281-12.49281A12.50678,12.50678,0,0,1,765.83084,128.58911Zm0-23.51588a11.02307,11.02307,0,1,0,11.02307,11.02307A11.03558,11.03558,0,0,0,765.83084,105.07323Z" transform="translate(-94.16628 -103.60349)" fill="#3f3d56"/><path d="M765.83084,163.86292a12.49281,12.49281,0,1,1,12.49281-12.49281A12.50678,12.50678,0,0,1,765.83084,163.86292Zm0-23.51587a11.02307,11.02307,0,1,0,11.02307,11.02306A11.03558,11.03558,0,0,0,765.83084,140.34705Z" transform="translate(-94.16628 -103.60349)" fill="#3f3d56"/><path d="M765.83084,195.46238a12.49281,12.49281,0,1,1,12.49281-12.49281A12.50678,12.50678,0,0,1,765.83084,195.46238Zm0-23.51588a11.02307,11.02307,0,1,0,11.02307,11.02307A11.03558,11.03558,0,0,0,765.83084,171.9465Z" transform="translate(-94.16628 -103.60349)" fill="#3f3d56"/><rect x="548.58853" y="480.77795" width="75.04911" height="6.68754" transform="translate(1078.0599 864.63996) rotate(-180)" fill="#3f3d56"/><rect x="548.58853" y="505.41386" width="75.04911" height="6.68754" transform="translate(1078.0599 913.91177) rotate(-180)" fill="#3f3d56"/><rect x="548.58853" y="527.48352" width="75.04911" height="6.68754" transform="translate(1078.0599 958.0511) rotate(-180)" fill="#3f3d56"/><polygon points="332.58 444.942 369.391 407.435 411.005 407.435 411.005 406.038 368.808 406.038 368.603 406.245 331.587 443.96 332.58 444.942" fill="#3f3d56"/><circle cx="430.81285" cy="382.57123" r="8.21197" fill="#1689fa"/><circle cx="430.81285" cy="407.20713" r="8.21197" fill="#1689fa"/><circle cx="430.81285" cy="429.2768" r="8.21197" fill="#1689fa"/><path d="M520.3599,484.12173a8.72522,8.72522,0,1,1,8.72521,8.72521A8.735,8.735,0,0,1,520.3599,484.12173Zm1.02649,0a7.69872,7.69872,0,1,0,7.69872-7.69872A7.70746,7.70746,0,0,0,521.38639,484.12173Z" transform="translate(-94.16628 -103.60349)" fill="#3f3d56"/><path d="M520.3599,508.75763a8.72522,8.72522,0,1,1,8.72521,8.72522A8.735,8.735,0,0,1,520.3599,508.75763Zm1.02649,0a7.69872,7.69872,0,1,0,7.69872-7.69872A7.70746,7.70746,0,0,0,521.38639,508.75763Z" transform="translate(-94.16628 -103.60349)" fill="#3f3d56"/><path d="M520.3599,530.82729a8.72522,8.72522,0,1,1,8.72521,8.72522A8.735,8.735,0,0,1,520.3599,530.82729Zm1.02649,0a7.69872,7.69872,0,1,0,7.69872-7.69872A7.70746,7.70746,0,0,0,521.38639,530.82729Z" transform="translate(-94.16628 -103.60349)" fill="#3f3d56"/></svg>