<?xml version="1.0" standalone="no"?>
<!DOCTYPE svg PUBLIC "-//W3C//DTD SVG 20010904//EN"
 "http://www.w3.org/TR/2001/REC-SVG-20010904/DTD/svg10.dtd">
<svg version="1.0" xmlns="http://www.w3.org/2000/svg"
 width="1667.000000pt" height="1667.000000pt" viewBox="0 0 1667.000000 1667.000000"
 preserveAspectRatio="xMidYMid meet">
<metadata>
Created by potrace 1.11, written by Peter Selinger 2001-2013
</metadata>
<g transform="translate(0.000000,1667.000000) scale(0.100000,-0.100000)"
fill="#000000" stroke="none">
<path d="M7401 13755 c-337 -107 -615 -195 -616 -197 -2 -2 1270 -887 2827
-1967 1557 -1081 2832 -1970 2833 -1975 2 -6 22 -1455 44 -3221 23 -1765 45
-3312 49 -3437 l7 -228 485 386 c267 212 495 394 508 404 20 16 91 360 774
3754 413 2055 749 3738 747 3740 -8 6 -7014 2929 -7029 2932 -8 2 -291 -84
-629 -191z"/>
<path d="M5691 12019 c-354 -17 -407 -21 -425 -37 -31 -27 -3577 -3291 -3608
-3321 l-26 -26 1292 -2119 1293 -2120 398 -133 c219 -73 400 -131 402 -130 2
2 -329 956 -735 2120 l-738 2116 1293 1831 c711 1007 1293 1833 1293 1835 0 3
-8 4 -17 4 -10 -1 -200 -10 -422 -20z"/>
</g>
</svg>
